<svg width="40" height="40" viewBox="0 0 40 40" fill="none" xmlns="http://www.w3.org/2000/svg">
<path d="M33.3337 16.6673C33.3337 26.6673 20.0003 36.6673 20.0003 36.6673C20.0003 36.6673 6.66699 26.6673 6.66699 16.6673C6.66699 13.1311 8.07175 9.73971 10.5722 7.23923C13.0727 4.73874 16.4641 3.33398 20.0003 3.33398C23.5365 3.33398 26.9279 4.73874 29.4284 7.23923C31.9289 9.73971 33.3337 13.1311 33.3337 16.6673Z" stroke="white" stroke-width="2" stroke-linecap="round" stroke-linejoin="round"/>
<path d="M20 21.666C22.7614 21.666 25 19.4274 25 16.666C25 13.9046 22.7614 11.666 20 11.666C17.2386 11.666 15 13.9046 15 16.666C15 19.4274 17.2386 21.666 20 21.666Z" stroke="white" stroke-width="2" stroke-linecap="round" stroke-linejoin="round"/>
</svg>
