<svg width="124" height="133" viewBox="0 0 124 133" fill="none" xmlns="http://www.w3.org/2000/svg">
<g clip-path="url(#clip0_528_6285)">
<path d="M62.0001 132.598C95.9055 132.598 123.391 116.828 123.391 107.572C123.391 73.3152 95.9055 45.5449 62.0001 45.5449C28.0947 45.5449 0.608887 73.3152 0.608887 107.572C0.608887 116.828 28.0947 132.598 62.0001 132.598Z" fill="#3F9378"/>
<g opacity="0.2">
<path d="M62 84.6153C81.9054 84.6153 98.0423 74.9841 98.0423 63.1032C98.0423 60.5757 97.3056 58.1514 95.9638 55.8982C86.2366 49.3585 74.56 45.5449 62 45.5449C49.44 45.5449 37.7635 49.359 28.0363 55.8982C26.6945 58.1509 25.9578 60.5752 25.9578 63.1032C25.9578 74.9841 42.0946 84.6153 62 84.6153Z" fill="#D0E6F2"/>
</g>
<g opacity="0.2">
<path d="M61.9999 98.0966C86.1049 98.0966 106.508 87.8007 113.371 73.6067C102.404 56.7092 83.4932 45.5469 61.9999 45.5469C40.5066 45.5469 21.5962 56.7092 10.6289 73.6067C17.4915 87.8007 37.8949 98.0966 61.9999 98.0966Z" fill="#D0E6F2"/>
</g>
<g opacity="0.2">
<path d="M62.0001 67.0852C72.5438 67.0852 81.0911 62.9632 81.0911 57.8785C81.0911 52.7938 72.5438 48.6719 62.0001 48.6719C51.4565 48.6719 42.9092 52.7938 42.9092 57.8785C42.9092 62.9632 51.4565 67.0852 62.0001 67.0852Z" fill="#D0E6F2"/>
</g>
<path d="M81.2797 19.5749C81.2797 8.8167 72.6475 0.0957031 62.0001 0.0957031C51.3526 0.0957031 42.7205 8.8167 42.7205 19.5749C42.7205 26.7157 46.5258 32.9557 52.1968 36.3468V40.5346C52.1968 41.6082 53.0579 42.4782 54.1205 42.4782H69.8796C70.9423 42.4782 71.8033 41.6082 71.8033 40.5346V36.3468C77.4743 32.9557 81.2797 26.7157 81.2797 19.5749Z" fill="#FFA96B"/>
<path d="M60.0776 42.4092V22.2089C60.0776 22.2089 60.1122 19.779 57.5131 19.6037C55.1722 19.4459 54.3411 21.2009 54.3411 22.5042C54.3411 24.0211 55.3864 25.6349 57.9504 25.6349H62.4825" stroke="white" stroke-width="1.5" stroke-miterlimit="10"/>
<path d="M63.9233 42.4092V22.2089C63.9233 22.2089 63.8887 19.779 66.4878 19.6037C68.8287 19.4459 69.6598 21.2009 69.6598 22.5042C69.6598 24.0211 68.6145 25.6349 66.0504 25.6349C63.3026 25.6349 61.5183 25.6349 61.5183 25.6349" stroke="white" stroke-width="1.5" stroke-miterlimit="10"/>
<path d="M52.9631 47.5488V50.1673C52.9631 50.663 53.2218 51.0954 53.6086 51.3416H70.3925C70.7793 51.0954 71.0379 50.663 71.0379 50.1673V47.5488H52.9631Z" fill="#2E3855"/>
<path d="M71.0374 47.076V43.7611C71.0374 43.3773 70.7297 43.0664 70.3499 43.0664H53.6507C53.2709 43.0664 52.9631 43.3773 52.9631 43.7611V47.076H71.0374Z" fill="#2E3855"/>
<path d="M55.2048 51.8145C56.0546 54.2878 58.7683 56.1015 61.9997 56.1015C65.2312 56.1015 67.9453 54.2878 68.7947 51.8145H55.2048Z" fill="#2E3855"/>
</g>
<defs>
<clipPath id="clip0_528_6285">
<rect width="124" height="133" fill="white"/>
</clipPath>
</defs>
</svg>
