<svg width="246" height="44" viewBox="0 0 246 44" fill="none" xmlns="http://www.w3.org/2000/svg">
<path d="M35 22.8333V27.8333C35 28.2754 34.8244 28.6993 34.5118 29.0118C34.1993 29.3244 33.7754 29.5 33.3333 29.5H24.1667C23.7246 29.5 23.3007 29.3244 22.9882 29.0118C22.6756 28.6993 22.5 28.2754 22.5 27.8333V18.6667C22.5 18.2246 22.6756 17.8007 22.9882 17.4882C23.3007 17.1756 23.7246 17 24.1667 17H29.1667" stroke="#2E3855" stroke-width="2" stroke-linecap="round" stroke-linejoin="round"/>
<path d="M32.5 14.5H37.5V19.5" stroke="#2E3855" stroke-width="2" stroke-linecap="round" stroke-linejoin="round"/>
<path d="M28.333 23.6667L37.4997 14.5" stroke="#2E3855" stroke-width="2" stroke-linecap="round" stroke-linejoin="round"/>
<path d="M56.3835 28.17C55.2502 28.17 54.2698 27.9207 53.4425 27.422C52.6208 26.9233 51.9833 26.2037 51.53 25.263C51.0823 24.3223 50.8585 23.1947 50.8585 21.88C50.8585 20.554 51.0852 19.4178 51.5385 18.4715C51.9918 17.5252 52.6322 16.7998 53.4595 16.2955C54.2925 15.7912 55.2672 15.539 56.3835 15.539C57.4998 15.539 58.466 15.7912 59.282 16.2955C60.1037 16.7998 60.7383 17.5252 61.186 18.4715C61.6337 19.4178 61.8575 20.554 61.8575 21.88C61.8575 23.1947 61.6365 24.3223 61.1945 25.263C60.7525 26.198 60.1207 26.9177 59.299 27.422C58.4773 27.9207 57.5055 28.17 56.3835 28.17ZM56.3835 26.436C57.0522 26.436 57.6273 26.2802 58.109 25.9685C58.5907 25.6512 58.959 25.161 59.214 24.498C59.4747 23.8293 59.605 22.9652 59.605 21.9055C59.605 20.8288 59.4747 19.9505 59.214 19.2705C58.9533 18.5848 58.5822 18.0805 58.1005 17.7575C57.6188 17.4345 57.0465 17.273 56.3835 17.273C55.7148 17.273 55.1368 17.4373 54.6495 17.766C54.1678 18.089 53.7938 18.5933 53.5275 19.279C53.2612 19.959 53.128 20.8345 53.128 21.9055C53.128 22.9652 53.2612 23.8293 53.5275 24.498C53.7938 25.161 54.1678 25.6512 54.6495 25.9685C55.1368 26.2802 55.7148 26.436 56.3835 26.436ZM64.0472 30.737V19.211H66.1127L66.1297 20.5965C66.243 20.4038 66.3875 20.214 66.5632 20.027C66.7445 19.84 66.9513 19.6728 67.1837 19.5255C67.4217 19.3782 67.6852 19.262 67.9742 19.177C68.2632 19.0863 68.5805 19.041 68.9262 19.041C69.6005 19.041 70.1983 19.2025 70.7197 19.5255C71.241 19.8428 71.649 20.333 71.9437 20.996C72.244 21.659 72.3942 22.4977 72.3942 23.512C72.3942 24.549 72.2412 25.4132 71.9352 26.1045C71.6292 26.7958 71.2013 27.3143 70.6517 27.66C70.102 28 69.4645 28.17 68.7392 28.17C68.4048 28.17 68.0988 28.1247 67.8212 28.034C67.5492 27.9433 67.3055 27.8187 67.0902 27.66C66.8748 27.5013 66.685 27.3285 66.5207 27.1415C66.362 26.9545 66.2288 26.759 66.1212 26.555V30.737H64.0472ZM68.2802 26.623C68.9035 26.623 69.4192 26.3765 69.8272 25.8835C70.2352 25.3848 70.4392 24.6057 70.4392 23.546C70.4392 22.628 70.2465 21.9055 69.8612 21.3785C69.4815 20.8458 68.9545 20.5795 68.2802 20.5795C67.5548 20.5795 67.0108 20.86 66.6482 21.421C66.2855 21.9763 66.1042 22.6847 66.1042 23.546C66.1042 24.1013 66.1835 24.6142 66.3422 25.0845C66.5065 25.5492 66.7473 25.9232 67.0647 26.2065C67.3877 26.4842 67.7928 26.623 68.2802 26.623ZM76.1874 24.0815C76.1818 24.5802 76.2611 25.0222 76.4254 25.4075C76.5898 25.7928 76.8334 26.096 77.1564 26.317C77.4794 26.5323 77.8789 26.64 78.3549 26.64C78.8423 26.64 79.2644 26.5323 79.6214 26.317C79.9841 26.096 80.2249 25.7617 80.3439 25.314H82.2394C82.1374 25.926 81.8938 26.4445 81.5084 26.8695C81.1231 27.2945 80.6556 27.6175 80.1059 27.8385C79.5619 28.0595 78.9953 28.17 78.4059 28.17C77.5559 28.17 76.8079 27.9915 76.1619 27.6345C75.5216 27.2718 75.0201 26.7562 74.6574 26.0875C74.3004 25.4188 74.1219 24.6227 74.1219 23.699C74.1219 22.798 74.2863 21.999 74.6149 21.302C74.9436 20.5993 75.4168 20.0468 76.0344 19.6445C76.6578 19.2422 77.4058 19.041 78.2784 19.041C79.1454 19.041 79.8736 19.2252 80.4629 19.5935C81.0579 19.9618 81.5056 20.4775 81.8059 21.1405C82.1119 21.7978 82.2649 22.5685 82.2649 23.4525V24.0815H76.1874ZM76.1874 22.798H80.3099C80.3099 22.373 80.2363 21.9905 80.0889 21.6505C79.9416 21.3048 79.7149 21.0328 79.4089 20.8345C79.1086 20.6305 78.7289 20.5285 78.2699 20.5285C77.8166 20.5285 77.4341 20.639 77.1224 20.86C76.8108 21.081 76.5756 21.3672 76.4169 21.7185C76.2583 22.0642 76.1818 22.424 76.1874 22.798ZM84.5328 28V19.211H86.5558V20.469C86.6918 20.2423 86.876 20.0242 87.1083 19.8145C87.3463 19.6048 87.6382 19.4348 87.9838 19.3045C88.3295 19.1742 88.7347 19.109 89.1993 19.109C89.7433 19.109 90.2477 19.2167 90.7123 19.432C91.1827 19.6473 91.5595 19.9845 91.8428 20.4435C92.1318 20.9025 92.2763 21.4947 92.2763 22.22V28H90.2023V22.4665C90.2023 21.8885 90.0437 21.4607 89.7263 21.183C89.409 20.8997 89.0095 20.758 88.5278 20.758C88.1992 20.758 87.8875 20.8147 87.5928 20.928C87.2982 21.0357 87.0573 21.2028 86.8703 21.4295C86.689 21.6505 86.5983 21.9282 86.5983 22.2625V28H84.5328ZM101.059 19.211V28H99.0702V19.211H101.059ZM101.085 15.7175V17.6725H99.0362V15.7175H101.085ZM103.981 28V19.211H106.004V20.469C106.14 20.2423 106.324 20.0242 106.556 19.8145C106.794 19.6048 107.086 19.4348 107.432 19.3045C107.777 19.1742 108.182 19.109 108.647 19.109C109.191 19.109 109.695 19.2167 110.16 19.432C110.63 19.6473 111.007 19.9845 111.291 20.4435C111.58 20.9025 111.724 21.4947 111.724 22.22V28H109.65V22.4665C109.65 21.8885 109.491 21.4607 109.174 21.183C108.857 20.8997 108.457 20.758 107.976 20.758C107.647 20.758 107.335 20.8147 107.041 20.928C106.746 21.0357 106.505 21.2028 106.318 21.4295C106.137 21.6505 106.046 21.9282 106.046 22.2625V28H103.981ZM123.448 28.17C122.349 28.17 121.394 27.9178 120.583 27.4135C119.773 26.9092 119.15 26.1895 118.713 25.2545C118.277 24.3138 118.059 23.1918 118.059 21.8885C118.059 20.5738 118.286 19.4405 118.739 18.4885C119.192 17.5365 119.83 16.8083 120.651 16.304C121.479 15.794 122.448 15.539 123.558 15.539C124.238 15.539 124.865 15.6523 125.437 15.879C126.015 16.1057 126.519 16.4117 126.95 16.797C127.386 17.1823 127.729 17.6215 127.978 18.1145C128.228 18.6075 128.367 19.1203 128.395 19.653H126.21C126.131 19.2337 125.97 18.8483 125.726 18.497C125.488 18.14 125.179 17.8538 124.799 17.6385C124.425 17.4232 123.998 17.3155 123.516 17.3155C122.898 17.3155 122.346 17.4713 121.858 17.783C121.377 18.0947 120.997 18.5848 120.719 19.2535C120.447 19.9165 120.311 20.7778 120.311 21.8375C120.311 22.6762 120.396 23.3845 120.566 23.9625C120.742 24.5348 120.98 24.9967 121.28 25.348C121.586 25.6937 121.938 25.9458 122.334 26.1045C122.731 26.2575 123.15 26.334 123.592 26.334C124.023 26.334 124.403 26.2603 124.731 26.113C125.06 25.9657 125.338 25.773 125.564 25.535C125.797 25.297 125.975 25.042 126.1 24.77C126.23 24.4923 126.307 24.2232 126.329 23.9625L126.406 23.0615H123.66V21.5995L128.565 21.6165V28H127.103V26.2745C126.893 26.5862 126.627 26.8865 126.304 27.1755C125.987 27.4645 125.596 27.7025 125.131 27.8895C124.672 28.0765 124.111 28.17 123.448 28.17ZM135.06 28.17C134.221 28.17 133.49 27.9915 132.867 27.6345C132.244 27.2718 131.759 26.7533 131.414 26.079C131.074 25.4047 130.904 24.5943 130.904 23.648C130.904 22.73 131.068 21.9253 131.397 21.234C131.731 20.5427 132.21 20.0043 132.833 19.619C133.456 19.2337 134.202 19.041 135.069 19.041C135.907 19.041 136.635 19.2252 137.253 19.5935C137.871 19.9618 138.347 20.4888 138.681 21.1745C139.021 21.8602 139.191 22.6847 139.191 23.648C139.191 24.5377 139.03 25.3225 138.707 26.0025C138.389 26.6768 137.922 27.2067 137.304 27.592C136.692 27.9773 135.944 28.17 135.06 28.17ZM135.069 26.5975C135.545 26.5975 135.936 26.4672 136.242 26.2065C136.553 25.9458 136.783 25.5888 136.93 25.1355C137.083 24.6822 137.16 24.1665 137.16 23.5885C137.16 23.0502 137.092 22.5543 136.956 22.101C136.825 21.6477 136.604 21.285 136.293 21.013C135.987 20.7353 135.579 20.5965 135.069 20.5965C134.587 20.5965 134.187 20.724 133.87 20.979C133.558 21.2283 133.323 21.5797 133.165 22.033C133.012 22.4807 132.935 22.9992 132.935 23.5885C132.935 24.1212 133.003 24.617 133.139 25.076C133.281 25.5293 133.507 25.8977 133.819 26.181C134.131 26.4587 134.547 26.5975 135.069 26.5975ZM145.012 28.17C144.174 28.17 143.443 27.9915 142.819 27.6345C142.196 27.2718 141.712 26.7533 141.366 26.079C141.026 25.4047 140.856 24.5943 140.856 23.648C140.856 22.73 141.02 21.9253 141.349 21.234C141.683 20.5427 142.162 20.0043 142.785 19.619C143.409 19.2337 144.154 19.041 145.021 19.041C145.86 19.041 146.588 19.2252 147.205 19.5935C147.823 19.9618 148.299 20.4888 148.633 21.1745C148.973 21.8602 149.143 22.6847 149.143 23.648C149.143 24.5377 148.982 25.3225 148.659 26.0025C148.342 26.6768 147.874 27.2067 147.256 27.592C146.644 27.9773 145.896 28.17 145.012 28.17ZM145.021 26.5975C145.497 26.5975 145.888 26.4672 146.194 26.2065C146.506 25.9458 146.735 25.5888 146.882 25.1355C147.035 24.6822 147.112 24.1665 147.112 23.5885C147.112 23.0502 147.044 22.5543 146.908 22.101C146.778 21.6477 146.557 21.285 146.245 21.013C145.939 20.7353 145.531 20.5965 145.021 20.5965C144.539 20.5965 144.14 20.724 143.822 20.979C143.511 21.2283 143.276 21.5797 143.117 22.033C142.964 22.4807 142.887 22.9992 142.887 23.5885C142.887 24.1212 142.955 24.617 143.091 25.076C143.233 25.5293 143.46 25.8977 143.771 26.181C144.083 26.4587 144.5 26.5975 145.021 26.5975ZM155.137 30.907C153.658 30.907 152.522 30.7087 151.728 30.312C150.935 29.9153 150.538 29.3713 150.538 28.68C150.538 28.3683 150.615 28.1077 150.768 27.898C150.921 27.6883 151.102 27.5155 151.312 27.3795C151.521 27.2435 151.714 27.1387 151.89 27.065C152.065 26.9913 152.179 26.9375 152.23 26.9035C152.133 26.8468 152.006 26.7732 151.847 26.6825C151.689 26.5918 151.544 26.4672 151.414 26.3085C151.289 26.1498 151.227 25.943 151.227 25.688C151.227 25.3933 151.366 25.1213 151.643 24.872C151.927 24.6227 152.349 24.4442 152.91 24.3365C152.36 24.0702 151.938 23.7103 151.643 23.257C151.349 22.8037 151.201 22.3333 151.201 21.846C151.201 21.268 151.368 20.7722 151.703 20.3585C152.043 19.9448 152.513 19.6275 153.114 19.4065C153.72 19.1855 154.42 19.075 155.213 19.075C155.803 19.075 156.29 19.1402 156.675 19.2705C157.061 19.4008 157.42 19.5765 157.755 19.7975C157.868 19.7522 158.027 19.6898 158.231 19.6105C158.44 19.5255 158.667 19.4348 158.911 19.3385C159.154 19.2365 159.387 19.1402 159.608 19.0495C159.834 18.9532 160.027 18.8738 160.186 18.8115L160.169 20.52L158.647 20.792C158.721 20.9563 158.778 21.1348 158.817 21.3275C158.863 21.5202 158.885 21.6902 158.885 21.8375C158.885 22.3475 158.741 22.8207 158.452 23.257C158.168 23.6877 157.741 24.0333 157.168 24.294C156.602 24.5547 155.893 24.685 155.043 24.685C154.958 24.685 154.842 24.6822 154.695 24.6765C154.547 24.6708 154.428 24.6652 154.338 24.6595C153.879 24.6765 153.564 24.7303 153.394 24.821C153.224 24.9117 153.139 25.0108 153.139 25.1185C153.139 25.2715 153.267 25.3735 153.522 25.4245C153.777 25.4755 154.185 25.5208 154.746 25.5605C154.944 25.5718 155.205 25.586 155.528 25.603C155.851 25.62 156.211 25.6427 156.607 25.671C157.61 25.7333 158.37 25.9855 158.885 26.4275C159.401 26.8638 159.659 27.4305 159.659 28.1275C159.659 28.9378 159.285 29.6037 158.537 30.125C157.789 30.6463 156.655 30.907 155.137 30.907ZM155.485 29.6915C156.228 29.6915 156.777 29.5895 157.134 29.3855C157.491 29.1815 157.67 28.8812 157.67 28.4845C157.67 28.1785 157.548 27.9292 157.304 27.7365C157.061 27.5438 156.698 27.4305 156.216 27.3965L153.998 27.2605C153.754 27.2435 153.522 27.2888 153.301 27.3965C153.085 27.4985 152.91 27.643 152.774 27.83C152.638 28.0113 152.57 28.2125 152.57 28.4335C152.57 28.8472 152.808 29.1588 153.284 29.3685C153.76 29.5838 154.494 29.6915 155.485 29.6915ZM155.111 23.4695C155.65 23.4695 156.086 23.3335 156.42 23.0615C156.755 22.7838 156.922 22.3928 156.922 21.8885C156.922 21.3672 156.755 20.962 156.42 20.673C156.086 20.3783 155.65 20.231 155.111 20.231C154.562 20.231 154.117 20.3783 153.777 20.673C153.442 20.9677 153.275 21.3728 153.275 21.8885C153.275 22.3758 153.437 22.7612 153.76 23.0445C154.083 23.3278 154.533 23.4695 155.111 23.4695ZM164.717 28.1275C164.15 28.1275 163.697 28.0567 163.357 27.915C163.017 27.7733 162.762 27.5835 162.592 27.3455C162.422 27.1075 162.311 26.8412 162.26 26.5465C162.209 26.2462 162.184 25.9402 162.184 25.6285V15.369H164.207V25.3905C164.207 25.7702 164.283 26.0648 164.436 26.2745C164.595 26.4842 164.85 26.606 165.201 26.64L165.643 26.657V27.9575C165.49 28.0028 165.334 28.0425 165.176 28.0765C165.017 28.1105 164.864 28.1275 164.717 28.1275ZM169.343 24.0815C169.338 24.5802 169.417 25.0222 169.581 25.4075C169.746 25.7928 169.989 26.096 170.312 26.317C170.635 26.5323 171.035 26.64 171.511 26.64C171.998 26.64 172.42 26.5323 172.777 26.317C173.14 26.096 173.381 25.7617 173.5 25.314H175.395C175.293 25.926 175.05 26.4445 174.664 26.8695C174.279 27.2945 173.812 27.6175 173.262 27.8385C172.718 28.0595 172.151 28.17 171.562 28.17C170.712 28.17 169.964 27.9915 169.318 27.6345C168.678 27.2718 168.176 26.7562 167.813 26.0875C167.456 25.4188 167.278 24.6227 167.278 23.699C167.278 22.798 167.442 21.999 167.771 21.302C168.1 20.5993 168.573 20.0468 169.19 19.6445C169.814 19.2422 170.562 19.041 171.434 19.041C172.301 19.041 173.03 19.2252 173.619 19.5935C174.214 19.9618 174.662 20.4775 174.962 21.1405C175.268 21.7978 175.421 22.5685 175.421 23.4525V24.0815H169.343ZM169.343 22.798H173.466C173.466 22.373 173.392 21.9905 173.245 21.6505C173.098 21.3048 172.871 21.0328 172.565 20.8345C172.265 20.6305 171.885 20.5285 171.426 20.5285C170.973 20.5285 170.59 20.639 170.278 20.86C169.967 21.081 169.732 21.3672 169.573 21.7185C169.414 22.0642 169.338 22.424 169.343 22.798ZM182.012 28V15.709H184.97L188.192 25.1015L191.447 15.709H194.388V28H192.289V18.361L189.05 28H187.325L184.112 18.4205V28H182.012ZM199.852 28.17C199.291 28.17 198.786 28.068 198.339 27.864C197.897 27.6543 197.548 27.3568 197.293 26.9715C197.044 26.5805 196.919 26.1073 196.919 25.552C196.919 24.583 197.268 23.852 197.965 23.359C198.667 22.866 199.786 22.6082 201.322 22.5855L202.631 22.5515V21.9565C202.631 21.4918 202.492 21.1292 202.215 20.8685C201.943 20.6022 201.518 20.4718 200.94 20.4775C200.515 20.4832 200.124 20.5852 199.767 20.7835C199.415 20.9762 199.183 21.302 199.07 21.761H197.31C197.344 21.1603 197.517 20.6588 197.829 20.2565C198.146 19.8485 198.579 19.5453 199.129 19.347C199.679 19.143 200.313 19.041 201.033 19.041C201.872 19.041 202.555 19.1515 203.082 19.3725C203.609 19.5935 203.997 19.9137 204.246 20.333C204.495 20.7467 204.62 21.2482 204.62 21.8375V28H202.878L202.716 26.419C202.399 27.082 201.996 27.541 201.509 27.796C201.027 28.0453 200.475 28.17 199.852 28.17ZM200.523 26.7675C200.778 26.7675 201.03 26.7222 201.28 26.6315C201.529 26.5352 201.756 26.4077 201.96 26.249C202.164 26.0847 202.325 25.9033 202.444 25.705C202.569 25.5067 202.631 25.2998 202.631 25.0845V23.699L201.552 23.716C201.019 23.7217 200.554 23.7783 200.158 23.886C199.761 23.9937 199.449 24.1665 199.223 24.4045C199.002 24.6368 198.891 24.9485 198.891 25.3395C198.891 25.7872 199.047 26.1385 199.359 26.3935C199.67 26.6428 200.058 26.7675 200.523 26.7675ZM207.38 30.737V19.211H209.445L209.462 20.5965C209.576 20.4038 209.72 20.214 209.896 20.027C210.077 19.84 210.284 19.6728 210.516 19.5255C210.754 19.3782 211.018 19.262 211.307 19.177C211.596 19.0863 211.913 19.041 212.259 19.041C212.933 19.041 213.531 19.2025 214.052 19.5255C214.574 19.8428 214.982 20.333 215.276 20.996C215.577 21.659 215.727 22.4977 215.727 23.512C215.727 24.549 215.574 25.4132 215.268 26.1045C214.962 26.7958 214.534 27.3143 213.984 27.66C213.435 28 212.797 28.17 212.072 28.17C211.737 28.17 211.431 28.1247 211.154 28.034C210.882 27.9433 210.638 27.8187 210.423 27.66C210.207 27.5013 210.018 27.3285 209.853 27.1415C209.695 26.9545 209.561 26.759 209.454 26.555V30.737H207.38ZM211.613 26.623C212.236 26.623 212.752 26.3765 213.16 25.8835C213.568 25.3848 213.772 24.6057 213.772 23.546C213.772 22.628 213.579 21.9055 213.194 21.3785C212.814 20.8458 212.287 20.5795 211.613 20.5795C210.887 20.5795 210.343 20.86 209.981 21.421C209.618 21.9763 209.437 22.6847 209.437 23.546C209.437 24.1013 209.516 24.6142 209.675 25.0845C209.839 25.5492 210.08 25.9232 210.397 26.2065C210.72 26.4842 211.125 26.623 211.613 26.623ZM221.17 28.17C220.558 28.17 219.977 28.0737 219.427 27.881C218.883 27.6827 218.424 27.3738 218.05 26.9545C217.682 26.5352 217.45 25.994 217.353 25.331H219.172C219.252 25.654 219.39 25.9175 219.589 26.1215C219.793 26.3255 220.034 26.4757 220.311 26.572C220.589 26.6627 220.872 26.708 221.161 26.708C221.688 26.708 222.113 26.6173 222.436 26.436C222.765 26.2547 222.929 25.9742 222.929 25.5945C222.929 25.3168 222.839 25.0958 222.657 24.9315C222.476 24.7672 222.187 24.6425 221.79 24.5575L220.116 24.175C219.373 24.0107 218.776 23.7387 218.322 23.359C217.875 22.9793 217.648 22.4438 217.642 21.7525C217.637 21.2312 217.767 20.7665 218.033 20.3585C218.3 19.9505 218.696 19.6303 219.223 19.398C219.75 19.16 220.402 19.041 221.178 19.041C222.204 19.041 223.026 19.2705 223.643 19.7295C224.261 20.1828 224.578 20.8317 224.595 21.676H222.836C222.773 21.2963 222.595 21.0017 222.3 20.792C222.006 20.5767 221.623 20.469 221.153 20.469C220.665 20.469 220.266 20.5625 219.954 20.7495C219.643 20.9365 219.487 21.2227 219.487 21.608C219.487 21.8743 219.606 22.084 219.844 22.237C220.082 22.39 220.439 22.5203 220.915 22.628L222.496 23.0105C222.949 23.1238 223.32 23.2768 223.609 23.4695C223.898 23.6622 224.125 23.8747 224.289 24.107C224.454 24.3337 224.567 24.5688 224.629 24.8125C224.697 25.0505 224.731 25.2715 224.731 25.4755C224.731 26.0422 224.584 26.5267 224.289 26.929C224 27.3257 223.589 27.6317 223.057 27.847C222.524 28.0623 221.895 28.17 221.17 28.17Z" fill="#2E3855"/>
<rect x="0.5" y="0.5" width="245" height="43" rx="5.5" stroke="#2E3855"/>
</svg>
