<svg width="41" height="40" viewBox="0 0 41 40" fill="none" xmlns="http://www.w3.org/2000/svg">
<g id="mdi:linkedin">
<path id="Vector" d="M31.3333 31.3333H31.8333V30.8333V22C31.8333 20.4264 31.2082 18.9172 30.0955 17.8045C28.9828 16.6918 27.4736 16.0667 25.9 16.0667C24.7523 16.0667 23.4847 16.5659 22.5333 17.3928V16.8833V16.3833H22.0333H17.3833H16.8833V16.8833V30.8333V31.3333H17.3833H22.0333H22.5333V30.8333V22.6167C22.5333 21.6048 23.3475 20.7833 24.35 20.7833C24.8362 20.7833 25.3025 20.9765 25.6464 21.3203C25.9902 21.6641 26.1833 22.1304 26.1833 22.6167V30.8333V31.3333H26.6833H31.3333ZM14.2833 31.3333H14.7833V30.8333V16.8833V16.3833H14.2833H9.66667H9.16667V16.8833V30.8333V31.3333H9.66667H14.2833ZM32.1667 5.5C32.9181 5.5 33.6388 5.79851 34.1701 6.32986C34.7015 6.86122 35 7.58189 35 8.33333V31.6667C35 32.4181 34.7015 33.1388 34.1701 33.6701C33.6388 34.2015 32.9181 34.5 32.1667 34.5H8.83333C8.08189 34.5 7.36122 34.2015 6.82986 33.6701C6.29851 33.1388 6 32.4181 6 31.6667V8.33333C6 7.58189 6.29851 6.86122 6.82986 6.32986C7.36122 5.79851 8.08189 5.5 8.83333 5.5H32.1667ZM11.9667 14.7667C12.8419 14.7667 13.6812 14.419 14.3001 13.8001C14.919 13.1812 15.2667 12.3419 15.2667 11.4667C15.2667 9.6444 13.7967 8.15 11.9667 8.15C11.087 8.15 10.2434 8.49943 9.62143 9.12143C8.99943 9.74342 8.65 10.587 8.65 11.4667C8.65 13.2967 10.1444 14.7667 11.9667 14.7667Z" fill="#2E3855" stroke="#2E3855"/>
</g>
</svg>
