<svg width="41" height="40" viewBox="0 0 41 40" fill="none" xmlns="http://www.w3.org/2000/svg">
<g id="CTA/mdi:instagram">
<path id="Vector" d="M13.4997 3.83398H27.4997C32.5569 3.83398 36.6663 7.94346 36.6663 13.0007V27.0007C36.6663 29.4318 35.7006 31.7634 33.9815 33.4825C32.2624 35.2016 29.9308 36.1673 27.4997 36.1673H13.4997C8.44248 36.1673 4.33301 32.0578 4.33301 27.0007V13.0007C4.33301 10.5695 5.29878 8.23792 7.01786 6.51884C8.73695 4.79976 11.0685 3.83398 13.4997 3.83398ZM13.1663 6.16732C11.4424 6.16732 9.78913 6.85214 8.57015 8.07112C7.35116 9.29011 6.66634 10.9434 6.66634 12.6673V27.334C6.66634 30.9268 9.57353 33.834 13.1663 33.834H27.833C29.5569 33.834 31.2102 33.1492 32.4292 31.9302C33.6482 30.7112 34.333 29.0579 34.333 27.334V12.6673C34.333 9.07451 31.4258 6.16732 27.833 6.16732H13.1663ZM29.2497 9.66732C29.6696 9.66732 30.0723 9.83413 30.3693 10.1311C30.6662 10.428 30.833 10.8307 30.833 11.2507C30.833 11.6706 30.6662 12.0733 30.3693 12.3702C30.0723 12.6672 29.6696 12.834 29.2497 12.834C28.8298 12.834 28.427 12.6672 28.1301 12.3702C27.8332 12.0733 27.6663 11.6706 27.6663 11.2507C27.6663 10.8307 27.8332 10.428 28.1301 10.1311C28.427 9.83413 28.8298 9.66732 29.2497 9.66732ZM20.4997 12.1673C22.5772 12.1673 24.5696 12.9926 26.0387 14.4616C27.5077 15.9307 28.333 17.9231 28.333 20.0007C28.333 22.0782 27.5077 24.0706 26.0387 25.5397C24.5696 27.0087 22.5772 27.834 20.4997 27.834C18.4221 27.834 16.4297 27.0087 14.9607 25.5397C13.4916 24.0706 12.6663 22.0782 12.6663 20.0007C12.6663 17.9231 13.4916 15.9307 14.9607 14.4616C16.4297 12.9926 18.4221 12.1673 20.4997 12.1673ZM20.4997 14.5007C19.041 14.5007 17.642 15.0801 16.6106 16.1116C15.5791 17.143 14.9997 18.542 14.9997 20.0007C14.9997 21.4593 15.5791 22.8583 16.6106 23.8897C17.642 24.9212 19.041 25.5007 20.4997 25.5007C21.9584 25.5007 23.3573 24.9212 24.3888 23.8897C25.4202 22.8583 25.9997 21.4593 25.9997 20.0007C25.9997 18.542 25.4202 17.143 24.3888 16.1116C23.3573 15.0801 21.9584 14.5007 20.4997 14.5007Z" fill="#2E3855" stroke="#2E3855"/>
</g>
</svg>
