<svg width="41" height="40" viewBox="0 0 41 40" fill="none" xmlns="http://www.w3.org/2000/svg">
<g id="mdi:spotify">
<path id="Vector" d="M30.0777 18.5972L30.0839 18.6009L30.0902 18.6044C30.5848 18.8792 31.1479 18.9278 31.6443 18.8233C32.1362 18.7197 32.611 18.455 32.9065 18.0413L32.923 18.0182L32.9368 17.9935C33.4766 17.0217 33.1691 15.7131 32.166 15.1507C28.9973 13.2684 24.9395 12.256 20.9467 11.9294C16.9498 11.6025 12.9697 11.9588 9.94119 12.8545L9.933 12.8569L9.92489 12.8596C8.93682 13.189 8.27101 14.2841 8.60409 15.3943L8.60627 15.4016L8.60867 15.4088C8.93803 16.3968 10.0331 17.0626 11.1433 16.7296L11.1434 16.7296L11.1484 16.728C13.6142 15.96 17.0475 15.6486 20.5329 15.9262C24.0198 16.2039 27.4996 17.0665 30.0777 18.5972ZM11.9543 21.8191L11.9694 21.8153L11.9843 21.8105C17.0934 20.1886 23.7673 21.0025 28.1417 23.6688C29.016 24.2792 30.0539 23.8516 30.5732 23.1246C30.8776 22.6985 30.9307 22.1922 30.8303 21.762C30.734 21.349 30.4793 20.9413 30.0781 20.7311C24.7882 17.4966 17.1548 16.5689 10.9492 18.4354C9.9563 18.6917 9.55007 19.7638 9.7646 20.6219C10.0151 21.6239 11.0926 22.0345 11.9543 21.8191ZM28.5824 27.6947L28.5996 27.6688L28.6136 27.6409C28.7852 27.2977 28.8497 26.8859 28.7567 26.4986C28.663 26.1082 28.4094 25.7533 27.9832 25.5573C23.5123 22.8182 17.8797 22.2465 11.4739 23.6794L11.449 23.6849L11.4249 23.693C10.7655 23.9128 10.0875 24.6279 10.3522 25.5547L10.3552 25.5651L10.3587 25.5754C10.5774 26.2315 11.2863 26.906 12.2063 26.652C17.9466 25.3422 22.7122 25.8498 26.4804 28.172C26.8417 28.4098 27.2534 28.4787 27.6418 28.3816C28.0272 28.2852 28.3557 28.0347 28.5824 27.6947ZM14.313 5.0646C16.2744 4.25215 18.3766 3.83398 20.4997 3.83398C22.6227 3.83398 24.725 4.25215 26.6864 5.0646C28.6478 5.87705 30.43 7.06788 31.9312 8.56909C33.4324 10.0703 34.6233 11.8525 35.4357 13.8139C36.2482 15.7754 36.6663 17.8776 36.6663 20.0007C36.6663 24.2883 34.9631 28.4004 31.9312 31.4322C28.8994 34.4641 24.7873 36.1673 20.4997 36.1673C18.3766 36.1673 16.2744 35.7492 14.313 34.9367C12.3515 34.1243 10.5693 32.9334 9.06811 31.4322C6.03628 28.4004 4.33301 24.2883 4.33301 20.0007C4.33301 15.713 6.03628 11.6009 9.06811 8.56909C10.5693 7.06788 12.3515 5.87705 14.313 5.0646Z" fill="#2E3855" stroke="#2E3855"/>
</g>
</svg>
