<svg width="252" height="44" viewBox="0 0 252 44" fill="none" xmlns="http://www.w3.org/2000/svg">
<path d="M76.5003 30.3327C81.1027 30.3327 84.8337 26.6017 84.8337 21.9993C84.8337 17.397 81.1027 13.666 76.5003 13.666C71.898 13.666 68.167 17.397 68.167 21.9993C68.167 26.6017 71.898 30.3327 76.5003 30.3327Z" stroke="#2E3855" stroke-width="2" stroke-linecap="round" stroke-linejoin="round"/>
<path d="M73.167 22H79.8337" stroke="#2E3855" stroke-width="2" stroke-linecap="round" stroke-linejoin="round"/>
<path d="M76.5 18.666V25.3327" stroke="#2E3855" stroke-width="2" stroke-linecap="round" stroke-linejoin="round"/>
<path d="M107.185 28H105.026L102.909 23.0105H100.053V28H97.9875V15.709H102.977C103.918 15.709 104.691 15.8563 105.298 16.151C105.91 16.44 106.363 16.8508 106.658 17.3835C106.952 17.9105 107.1 18.5282 107.1 19.2365C107.1 19.8938 106.992 20.4463 106.777 20.894C106.561 21.336 106.281 21.6987 105.935 21.982C105.595 22.2597 105.23 22.4863 104.839 22.662L107.185 28ZM102.51 21.37C103.292 21.37 103.901 21.1887 104.337 20.826C104.779 20.4633 105 19.959 105 19.313C105 18.6783 104.796 18.1882 104.388 17.8425C103.98 17.4968 103.442 17.324 102.773 17.324H100.053V21.37H102.51ZM111.009 24.0815C111.003 24.5802 111.082 25.0222 111.247 25.4075C111.411 25.7928 111.655 26.096 111.978 26.317C112.301 26.5323 112.7 26.64 113.176 26.64C113.663 26.64 114.086 26.5323 114.443 26.317C114.805 26.096 115.046 25.7617 115.165 25.314H117.061C116.959 25.926 116.715 26.4445 116.33 26.8695C115.944 27.2945 115.477 27.6175 114.927 27.8385C114.383 28.0595 113.816 28.17 113.227 28.17C112.377 28.17 111.629 27.9915 110.983 27.6345C110.343 27.2718 109.841 26.7562 109.479 26.0875C109.122 25.4188 108.943 24.6227 108.943 23.699C108.943 22.798 109.107 21.999 109.436 21.302C109.765 20.5993 110.238 20.0468 110.856 19.6445C111.479 19.2422 112.227 19.041 113.1 19.041C113.967 19.041 114.695 19.2252 115.284 19.5935C115.879 19.9618 116.327 20.4775 116.627 21.1405C116.933 21.7978 117.086 22.5685 117.086 23.4525V24.0815H111.009ZM111.009 22.798H115.131C115.131 22.373 115.057 21.9905 114.91 21.6505C114.763 21.3048 114.536 21.0328 114.23 20.8345C113.93 20.6305 113.55 20.5285 113.091 20.5285C112.638 20.5285 112.255 20.639 111.944 20.86C111.632 21.081 111.397 21.3672 111.238 21.7185C111.079 22.0642 111.003 22.424 111.009 22.798ZM121.761 28.17C121.2 28.17 120.696 28.068 120.248 27.864C119.806 27.6543 119.458 27.3568 119.203 26.9715C118.954 26.5805 118.829 26.1073 118.829 25.552C118.829 24.583 119.177 23.852 119.874 23.359C120.577 22.866 121.696 22.6082 123.232 22.5855L124.541 22.5515V21.9565C124.541 21.4918 124.402 21.1292 124.124 20.8685C123.852 20.6022 123.427 20.4718 122.849 20.4775C122.424 20.4832 122.033 20.5852 121.676 20.7835C121.325 20.9762 121.093 21.302 120.979 21.761H119.22C119.254 21.1603 119.427 20.6588 119.738 20.2565C120.056 19.8485 120.489 19.5453 121.039 19.347C121.589 19.143 122.223 19.041 122.943 19.041C123.782 19.041 124.464 19.1515 124.991 19.3725C125.518 19.5935 125.907 19.9137 126.156 20.333C126.405 20.7467 126.53 21.2482 126.53 21.8375V28H124.787L124.626 26.419C124.309 27.082 123.906 27.541 123.419 27.796C122.937 28.0453 122.385 28.17 121.761 28.17ZM122.433 26.7675C122.688 26.7675 122.94 26.7222 123.189 26.6315C123.439 26.5352 123.665 26.4077 123.869 26.249C124.073 26.0847 124.235 25.9033 124.354 25.705C124.479 25.5067 124.541 25.2998 124.541 25.0845V23.699L123.461 23.716C122.929 23.7217 122.464 23.7783 122.067 23.886C121.671 23.9937 121.359 24.1665 121.132 24.4045C120.911 24.6368 120.801 24.9485 120.801 25.3395C120.801 25.7872 120.957 26.1385 121.268 26.3935C121.58 26.6428 121.968 26.7675 122.433 26.7675ZM132.511 28.17C131.35 28.17 130.437 27.7705 129.774 26.9715C129.111 26.1725 128.78 25.0363 128.78 23.563C128.78 22.645 128.913 21.8488 129.179 21.1745C129.451 20.4945 129.848 19.9703 130.369 19.602C130.896 19.228 131.548 19.041 132.324 19.041C132.687 19.041 133.016 19.0863 133.31 19.177C133.611 19.262 133.877 19.3753 134.109 19.517C134.342 19.6587 134.537 19.8145 134.696 19.9845C134.86 20.1545 134.988 20.3245 135.078 20.4945V15.369H137.152V28H135.622L135.393 26.198C135.325 26.4077 135.223 26.6287 135.087 26.861C134.956 27.0877 134.778 27.3002 134.551 27.4985C134.33 27.6968 134.053 27.8583 133.718 27.983C133.384 28.1077 132.982 28.17 132.511 28.17ZM132.936 26.6485C133.679 26.6485 134.22 26.4077 134.56 25.926C134.905 25.4387 135.078 24.634 135.078 23.512C135.073 22.8717 134.993 22.3333 134.84 21.897C134.693 21.4607 134.463 21.132 134.152 20.911C133.846 20.69 133.449 20.5795 132.962 20.5795C132.338 20.5795 131.826 20.809 131.423 21.268C131.021 21.727 130.82 22.475 130.82 23.512C130.82 24.5433 131.004 25.3253 131.372 25.858C131.741 26.385 132.262 26.6485 132.936 26.6485ZM143.932 28V19.211H145.946V20.469C146.201 20.0837 146.547 19.7493 146.983 19.466C147.425 19.1827 147.986 19.041 148.666 19.041C148.978 19.041 149.292 19.0948 149.61 19.2025C149.933 19.3102 150.23 19.4688 150.502 19.6785C150.78 19.8882 151.001 20.1488 151.165 20.4605C151.443 20.0468 151.811 19.7068 152.27 19.4405C152.735 19.1742 153.256 19.041 153.834 19.041C154.151 19.041 154.477 19.092 154.812 19.194C155.152 19.296 155.463 19.466 155.747 19.704C156.03 19.942 156.259 20.2678 156.435 20.6815C156.611 21.0895 156.699 21.6023 156.699 22.22V28H154.633V22.4665C154.633 22.0302 154.557 21.6873 154.404 21.438C154.251 21.1887 154.052 21.013 153.809 20.911C153.571 20.8033 153.316 20.7495 153.044 20.7495C152.8 20.7495 152.545 20.7977 152.279 20.894C152.018 20.9903 151.794 21.149 151.607 21.37C151.426 21.591 151.335 21.8885 151.335 22.2625V28H149.27V22.135C149.27 21.829 149.19 21.574 149.032 21.37C148.873 21.166 148.672 21.013 148.428 20.911C148.19 20.8033 147.946 20.7495 147.697 20.7495C147.442 20.7495 147.181 20.8033 146.915 20.911C146.654 21.0187 146.436 21.183 146.261 21.404C146.085 21.625 145.997 21.9112 145.997 22.2625V28H143.932ZM162.909 28.17C162.071 28.17 161.34 27.9915 160.716 27.6345C160.093 27.2718 159.608 26.7533 159.263 26.079C158.923 25.4047 158.753 24.5943 158.753 23.648C158.753 22.73 158.917 21.9253 159.246 21.234C159.58 20.5427 160.059 20.0043 160.682 19.619C161.306 19.2337 162.051 19.041 162.918 19.041C163.756 19.041 164.485 19.2252 165.102 19.5935C165.72 19.9618 166.196 20.4888 166.53 21.1745C166.87 21.8602 167.04 22.6847 167.04 23.648C167.04 24.5377 166.879 25.3225 166.556 26.0025C166.238 26.6768 165.771 27.2067 165.153 27.592C164.541 27.9773 163.793 28.17 162.909 28.17ZM162.918 26.5975C163.394 26.5975 163.785 26.4672 164.091 26.2065C164.402 25.9458 164.632 25.5888 164.779 25.1355C164.932 24.6822 165.009 24.1665 165.009 23.5885C165.009 23.0502 164.941 22.5543 164.805 22.101C164.674 21.6477 164.453 21.285 164.142 21.013C163.836 20.7353 163.428 20.5965 162.918 20.5965C162.436 20.5965 162.037 20.724 161.719 20.979C161.408 21.2283 161.172 21.5797 161.014 22.033C160.861 22.4807 160.784 22.9992 160.784 23.5885C160.784 24.1212 160.852 24.617 160.988 25.076C161.13 25.5293 161.357 25.8977 161.668 26.181C161.98 26.4587 162.396 26.5975 162.918 26.5975ZM169.215 28V19.211H171.196V21.115C171.337 20.6787 171.538 20.3075 171.799 20.0015C172.065 19.6898 172.377 19.4518 172.734 19.2875C173.091 19.1232 173.479 19.041 173.899 19.041C174.001 19.041 174.1 19.0467 174.196 19.058C174.292 19.0693 174.363 19.0892 174.409 19.1175V21.098C174.346 21.0697 174.264 21.0498 174.162 21.0385C174.066 21.0272 173.981 21.0215 173.907 21.0215C173.482 20.9875 173.105 21.0045 172.777 21.0725C172.454 21.1405 172.179 21.2567 171.952 21.421C171.731 21.5797 171.564 21.7837 171.451 22.033C171.337 22.2767 171.281 22.5628 171.281 22.8915V28H169.215ZM177.852 24.0815C177.847 24.5802 177.926 25.0222 178.09 25.4075C178.255 25.7928 178.498 26.096 178.821 26.317C179.144 26.5323 179.544 26.64 180.02 26.64C180.507 26.64 180.929 26.5323 181.286 26.317C181.649 26.096 181.89 25.7617 182.009 25.314H183.904C183.802 25.926 183.559 26.4445 183.173 26.8695C182.788 27.2945 182.321 27.6175 181.771 27.8385C181.227 28.0595 180.66 28.17 180.071 28.17C179.221 28.17 178.473 27.9915 177.827 27.6345C177.187 27.2718 176.685 26.7562 176.322 26.0875C175.965 25.4188 175.787 24.6227 175.787 23.699C175.787 22.798 175.951 21.999 176.28 21.302C176.609 20.5993 177.082 20.0468 177.699 19.6445C178.323 19.2422 179.071 19.041 179.943 19.041C180.81 19.041 181.539 19.2252 182.128 19.5935C182.723 19.9618 183.171 20.4775 183.471 21.1405C183.777 21.7978 183.93 22.5685 183.93 23.4525V24.0815H177.852ZM177.852 22.798H181.975C181.975 22.373 181.901 21.9905 181.754 21.6505C181.607 21.3048 181.38 21.0328 181.074 20.8345C180.774 20.6305 180.394 20.5285 179.935 20.5285C179.482 20.5285 179.099 20.639 178.787 20.86C178.476 21.081 178.241 21.3672 178.082 21.7185C177.923 22.0642 177.847 22.424 177.852 22.798Z" fill="#2E3855"/>
<rect x="0.5" y="0.5" width="251" height="43" rx="5.5" stroke="#2E3855"/>
</svg>
