<svg width="252" height="44" viewBox="0 0 252 44" fill="none" xmlns="http://www.w3.org/2000/svg">
<path d="M61.8333 14.5C62.2754 14.5 62.6993 14.6756 63.0118 14.9882C63.3244 15.3007 63.5 15.7246 63.5 16.1667V27.8333C63.5 28.2754 63.3244 28.6993 63.0118 29.0118C62.6993 29.3244 62.2754 29.5 61.8333 29.5H50.1667C49.7246 29.5 49.3007 29.3244 48.9882 29.0118C48.6756 28.6993 48.5 28.2754 48.5 27.8333V16.1667C48.5 15.7246 48.6756 15.3007 48.9882 14.9882C49.3007 14.6756 49.7246 14.5 50.1667 14.5H61.8333ZM61.4167 27.4167V23C61.4167 22.2795 61.1304 21.5885 60.621 21.079C60.1115 20.5696 59.4205 20.2833 58.7 20.2833C57.9917 20.2833 57.1667 20.7167 56.7667 21.3667V20.4417H54.4417V27.4167H56.7667V23.3083C56.7667 22.6667 57.2833 22.1417 57.925 22.1417C58.2344 22.1417 58.5312 22.2646 58.75 22.4834C58.9688 22.7022 59.0917 22.9989 59.0917 23.3083V27.4167H61.4167ZM51.7333 19.1333C52.1046 19.1333 52.4607 18.9858 52.7233 18.7233C52.9858 18.4607 53.1333 18.1046 53.1333 17.7333C53.1333 16.9583 52.5083 16.325 51.7333 16.325C51.3598 16.325 51.0016 16.4734 50.7375 16.7375C50.4734 17.0016 50.325 17.3598 50.325 17.7333C50.325 18.5083 50.9583 19.1333 51.7333 19.1333ZM52.8917 27.4167V20.4417H50.5833V27.4167H52.8917Z" fill="#2E3855"/>
<path d="M77.496 15.709H79.587V26.215H85.1375V28H77.4875L77.496 15.709ZM89.458 19.211V28H87.469V19.211H89.458ZM89.4835 15.7175V17.6725H87.435V15.7175H89.4835ZM92.3794 28V19.211H94.4024V20.469C94.5384 20.2423 94.7225 20.0242 94.9549 19.8145C95.1929 19.6048 95.4847 19.4348 95.8304 19.3045C96.176 19.1742 96.5812 19.109 97.0459 19.109C97.5899 19.109 98.0942 19.2167 98.5589 19.432C99.0292 19.6473 99.406 19.9845 99.6894 20.4435C99.9784 20.9025 100.123 21.4947 100.123 22.22V28H98.0489V22.4665C98.0489 21.8885 97.8902 21.4607 97.5729 21.183C97.2555 20.8997 96.856 20.758 96.3744 20.758C96.0457 20.758 95.734 20.8147 95.4394 20.928C95.1447 21.0357 94.9039 21.2028 94.7169 21.4295C94.5355 21.6505 94.4449 21.9282 94.4449 22.2625V28H92.3794ZM110.815 28H108.715L106.165 23.9285L104.737 25.4245V28H102.68V15.369H104.737V23.1975L108.384 19.211H110.653L107.474 22.645L110.815 28ZM113.974 24.0815C113.968 24.5802 114.048 25.0222 114.212 25.4075C114.376 25.7928 114.62 26.096 114.943 26.317C115.266 26.5323 115.665 26.64 116.141 26.64C116.629 26.64 117.051 26.5323 117.408 26.317C117.771 26.096 118.011 25.7617 118.13 25.314H120.026C119.924 25.926 119.68 26.4445 119.295 26.8695C118.91 27.2945 118.442 27.6175 117.892 27.8385C117.348 28.0595 116.782 28.17 116.192 28.17C115.342 28.17 114.594 27.9915 113.948 27.6345C113.308 27.2718 112.807 26.7562 112.444 26.0875C112.087 25.4188 111.908 24.6227 111.908 23.699C111.908 22.798 112.073 21.999 112.401 21.302C112.73 20.5993 113.203 20.0468 113.821 19.6445C114.444 19.2422 115.192 19.041 116.065 19.041C116.932 19.041 117.66 19.2252 118.249 19.5935C118.844 19.9618 119.292 20.4775 119.592 21.1405C119.898 21.7978 120.051 22.5685 120.051 23.4525V24.0815H113.974ZM113.974 22.798H118.096C118.096 22.373 118.023 21.9905 117.875 21.6505C117.728 21.3048 117.501 21.0328 117.195 20.8345C116.895 20.6305 116.515 20.5285 116.056 20.5285C115.603 20.5285 115.221 20.639 114.909 20.86C114.597 21.081 114.362 21.3672 114.203 21.7185C114.045 22.0642 113.968 22.424 113.974 22.798ZM125.541 28.17C124.379 28.17 123.467 27.7705 122.804 26.9715C122.141 26.1725 121.809 25.0363 121.809 23.563C121.809 22.645 121.942 21.8488 122.209 21.1745C122.481 20.4945 122.877 19.9703 123.399 19.602C123.926 19.228 124.577 19.041 125.354 19.041C125.716 19.041 126.045 19.0863 126.34 19.177C126.64 19.262 126.906 19.3753 127.139 19.517C127.371 19.6587 127.567 19.8145 127.725 19.9845C127.89 20.1545 128.017 20.3245 128.108 20.4945V15.369H130.182V28H128.652L128.422 26.198C128.354 26.4077 128.252 26.6287 128.116 26.861C127.986 27.0877 127.807 27.3002 127.581 27.4985C127.36 27.6968 127.082 27.8583 126.748 27.983C126.413 28.1077 126.011 28.17 125.541 28.17ZM125.966 26.6485C126.708 26.6485 127.249 26.4077 127.589 25.926C127.935 25.4387 128.108 24.634 128.108 23.512C128.102 22.8717 128.023 22.3333 127.87 21.897C127.722 21.4607 127.493 21.132 127.181 20.911C126.875 20.69 126.479 20.5795 125.991 20.5795C125.368 20.5795 124.855 20.809 124.453 21.268C124.05 21.727 123.849 22.475 123.849 23.512C123.849 24.5433 124.033 25.3253 124.402 25.858C124.77 26.385 125.291 26.6485 125.966 26.6485ZM135.086 19.211V28H133.097V19.211H135.086ZM135.111 15.7175V17.6725H133.063V15.7175H135.111ZM138.007 28V19.211H140.03V20.469C140.166 20.2423 140.35 20.0242 140.583 19.8145C140.821 19.6048 141.112 19.4348 141.458 19.3045C141.804 19.1742 142.209 19.109 142.674 19.109C143.218 19.109 143.722 19.2167 144.187 19.432C144.657 19.6473 145.034 19.9845 145.317 20.4435C145.606 20.9025 145.751 21.4947 145.751 22.22V28H143.677V22.4665C143.677 21.8885 143.518 21.4607 143.201 21.183C142.883 20.8997 142.484 20.758 142.002 20.758C141.673 20.758 141.362 20.8147 141.067 20.928C140.772 21.0357 140.532 21.2028 140.345 21.4295C140.163 21.6505 140.073 21.9282 140.073 22.2625V28H138.007ZM152.4 30.737V19.211H154.465L154.482 20.5965C154.596 20.4038 154.74 20.214 154.916 20.027C155.097 19.84 155.304 19.6728 155.536 19.5255C155.774 19.3782 156.038 19.262 156.327 19.177C156.616 19.0863 156.933 19.041 157.279 19.041C157.953 19.041 158.551 19.2025 159.072 19.5255C159.594 19.8428 160.002 20.333 160.296 20.996C160.597 21.659 160.747 22.4977 160.747 23.512C160.747 24.549 160.594 25.4132 160.288 26.1045C159.982 26.7958 159.554 27.3143 159.004 27.66C158.455 28 157.817 28.17 157.092 28.17C156.758 28.17 156.452 28.1247 156.174 28.034C155.902 27.9433 155.658 27.8187 155.443 27.66C155.228 27.5013 155.038 27.3285 154.873 27.1415C154.715 26.9545 154.582 26.759 154.474 26.555V30.737H152.4ZM156.633 26.623C157.256 26.623 157.772 26.3765 158.18 25.8835C158.588 25.3848 158.792 24.6057 158.792 23.546C158.792 22.628 158.599 21.9055 158.214 21.3785C157.834 20.8458 157.307 20.5795 156.633 20.5795C155.908 20.5795 155.364 20.86 155.001 21.421C154.638 21.9763 154.457 22.6847 154.457 23.546C154.457 24.1013 154.536 24.6142 154.695 25.0845C154.859 25.5492 155.1 25.9232 155.417 26.2065C155.74 26.4842 156.146 26.623 156.633 26.623ZM162.917 28V19.211H164.897V21.115C165.039 20.6787 165.24 20.3075 165.501 20.0015C165.767 19.6898 166.079 19.4518 166.436 19.2875C166.793 19.1232 167.181 19.041 167.6 19.041C167.702 19.041 167.801 19.0467 167.898 19.058C167.994 19.0693 168.065 19.0892 168.11 19.1175V21.098C168.048 21.0697 167.966 21.0498 167.864 21.0385C167.767 21.0272 167.682 21.0215 167.609 21.0215C167.184 20.9875 166.807 21.0045 166.478 21.0725C166.155 21.1405 165.88 21.2567 165.654 21.421C165.433 21.5797 165.266 21.7837 165.152 22.033C165.039 22.2767 164.982 22.5628 164.982 22.8915V28H162.917ZM173.577 28.17C172.738 28.17 172.007 27.9915 171.384 27.6345C170.761 27.2718 170.276 26.7533 169.931 26.079C169.591 25.4047 169.421 24.5943 169.421 23.648C169.421 22.73 169.585 21.9253 169.914 21.234C170.248 20.5427 170.727 20.0043 171.35 19.619C171.973 19.2337 172.719 19.041 173.586 19.041C174.424 19.041 175.152 19.2252 175.77 19.5935C176.388 19.9618 176.864 20.4888 177.198 21.1745C177.538 21.8602 177.708 22.6847 177.708 23.648C177.708 24.5377 177.547 25.3225 177.224 26.0025C176.906 26.6768 176.439 27.2067 175.821 27.592C175.209 27.9773 174.461 28.17 173.577 28.17ZM173.586 26.5975C174.062 26.5975 174.453 26.4672 174.759 26.2065C175.07 25.9458 175.3 25.5888 175.447 25.1355C175.6 24.6822 175.677 24.1665 175.677 23.5885C175.677 23.0502 175.609 22.5543 175.473 22.101C175.342 21.6477 175.121 21.285 174.81 21.013C174.504 20.7353 174.096 20.5965 173.586 20.5965C173.104 20.5965 172.704 20.724 172.387 20.979C172.075 21.2283 171.84 21.5797 171.682 22.033C171.529 22.4807 171.452 22.9992 171.452 23.5885C171.452 24.1212 171.52 24.617 171.656 25.076C171.798 25.5293 172.024 25.8977 172.336 26.181C172.648 26.4587 173.064 26.5975 173.586 26.5975ZM184.727 19.211V20.673H182.747V28H180.681V20.673H178.947V19.211H180.681V17.902C180.681 17.1993 180.874 16.6582 181.259 16.2785C181.65 15.8988 182.214 15.709 182.951 15.709H184.804L184.812 17.12H183.588C183.254 17.12 183.025 17.2078 182.9 17.3835C182.775 17.5535 182.713 17.8227 182.713 18.191V19.211H184.727ZM188.544 19.211V28H186.555V19.211H188.544ZM188.569 15.7175V17.6725H186.521V15.7175H188.569ZM193.979 28.1275C193.412 28.1275 192.959 28.0567 192.619 27.915C192.279 27.7733 192.024 27.5835 191.854 27.3455C191.684 27.1075 191.573 26.8412 191.522 26.5465C191.471 26.2462 191.446 25.9402 191.446 25.6285V15.369H193.469V25.3905C193.469 25.7702 193.545 26.0648 193.698 26.2745C193.857 26.4842 194.112 26.606 194.463 26.64L194.905 26.657V27.9575C194.752 28.0028 194.596 28.0425 194.438 28.0765C194.279 28.1105 194.126 28.1275 193.979 28.1275ZM198.605 24.0815C198.6 24.5802 198.679 25.0222 198.843 25.4075C199.008 25.7928 199.251 26.096 199.574 26.317C199.897 26.5323 200.297 26.64 200.773 26.64C201.26 26.64 201.682 26.5323 202.039 26.317C202.402 26.096 202.643 25.7617 202.762 25.314H204.657C204.555 25.926 204.312 26.4445 203.926 26.8695C203.541 27.2945 203.073 27.6175 202.524 27.8385C201.98 28.0595 201.413 28.17 200.824 28.17C199.974 28.17 199.226 27.9915 198.58 27.6345C197.939 27.2718 197.438 26.7562 197.075 26.0875C196.718 25.4188 196.54 24.6227 196.54 23.699C196.54 22.798 196.704 21.999 197.033 21.302C197.361 20.5993 197.835 20.0468 198.452 19.6445C199.076 19.2422 199.824 19.041 200.696 19.041C201.563 19.041 202.291 19.2252 202.881 19.5935C203.476 19.9618 203.923 20.4775 204.224 21.1405C204.53 21.7978 204.683 22.5685 204.683 23.4525V24.0815H198.605ZM198.605 22.798H202.728C202.728 22.373 202.654 21.9905 202.507 21.6505C202.359 21.3048 202.133 21.0328 201.827 20.8345C201.526 20.6305 201.147 20.5285 200.688 20.5285C200.234 20.5285 199.852 20.639 199.54 20.86C199.229 21.081 198.993 21.3672 198.835 21.7185C198.676 22.0642 198.6 22.424 198.605 22.798Z" fill="#2E3855"/>
<rect x="0.5" y="0.5" width="251" height="43" rx="5.5" stroke="#2E3855"/>
</svg>
