<svg width="200" height="44" viewBox="0 0 200 44" fill="none" xmlns="http://www.w3.org/2000/svg">
<path d="M35.8333 14.5C36.2754 14.5 36.6993 14.6756 37.0118 14.9882C37.3244 15.3007 37.5 15.7246 37.5 16.1667V27.8333C37.5 28.2754 37.3244 28.6993 37.0118 29.0118C36.6993 29.3244 36.2754 29.5 35.8333 29.5H24.1667C23.7246 29.5 23.3007 29.3244 22.9882 29.0118C22.6756 28.6993 22.5 28.2754 22.5 27.8333V16.1667C22.5 15.7246 22.6756 15.3007 22.9882 14.9882C23.3007 14.6756 23.7246 14.5 24.1667 14.5H35.8333ZM35.4167 27.4167V23C35.4167 22.2795 35.1304 21.5885 34.621 21.079C34.1115 20.5696 33.4205 20.2833 32.7 20.2833C31.9917 20.2833 31.1667 20.7167 30.7667 21.3667V20.4417H28.4417V27.4167H30.7667V23.3083C30.7667 22.6667 31.2833 22.1417 31.925 22.1417C32.2344 22.1417 32.5312 22.2646 32.75 22.4834C32.9688 22.7022 33.0917 22.9989 33.0917 23.3083V27.4167H35.4167ZM25.7333 19.1333C26.1046 19.1333 26.4607 18.9858 26.7233 18.7233C26.9858 18.4607 27.1333 18.1046 27.1333 17.7333C27.1333 16.9583 26.5083 16.325 25.7333 16.325C25.3598 16.325 25.0016 16.4734 24.7375 16.7375C24.4734 17.0016 24.325 17.3598 24.325 17.7333C24.325 18.5083 24.9583 19.1333 25.7333 19.1333ZM26.8917 27.4167V20.4417H24.5833V27.4167H26.8917Z" fill="#2E3855"/>
<path d="M51.496 15.709H53.587V26.215H59.1375V28H51.4875L51.496 15.709ZM63.458 19.211V28H61.469V19.211H63.458ZM63.4835 15.7175V17.6725H61.435V15.7175H63.4835ZM66.3794 28V19.211H68.4024V20.469C68.5384 20.2423 68.7225 20.0242 68.9549 19.8145C69.1929 19.6048 69.4847 19.4348 69.8304 19.3045C70.176 19.1742 70.5812 19.109 71.0459 19.109C71.5899 19.109 72.0942 19.2167 72.5589 19.432C73.0292 19.6473 73.406 19.9845 73.6894 20.4435C73.9784 20.9025 74.1229 21.4947 74.1229 22.22V28H72.0489V22.4665C72.0489 21.8885 71.8902 21.4607 71.5729 21.183C71.2555 20.8997 70.856 20.758 70.3744 20.758C70.0457 20.758 69.734 20.8147 69.4394 20.928C69.1447 21.0357 68.9039 21.2028 68.7169 21.4295C68.5355 21.6505 68.4449 21.9282 68.4449 22.2625V28H66.3794ZM84.8148 28H82.7153L80.1653 23.9285L78.7373 25.4245V28H76.6803V15.369H78.7373V23.1975L82.3838 19.211H84.6533L81.4743 22.645L84.8148 28ZM87.9739 24.0815C87.9682 24.5802 88.0476 25.0222 88.2119 25.4075C88.3762 25.7928 88.6199 26.096 88.9429 26.317C89.2659 26.5323 89.6654 26.64 90.1414 26.64C90.6287 26.64 91.0509 26.5323 91.4079 26.317C91.7706 26.096 92.0114 25.7617 92.1304 25.314H94.0259C93.9239 25.926 93.6802 26.4445 93.2949 26.8695C92.9096 27.2945 92.4421 27.6175 91.8924 27.8385C91.3484 28.0595 90.7817 28.17 90.1924 28.17C89.3424 28.17 88.5944 27.9915 87.9484 27.6345C87.3081 27.2718 86.8066 26.7562 86.4439 26.0875C86.0869 25.4188 85.9084 24.6227 85.9084 23.699C85.9084 22.798 86.0727 21.999 86.4014 21.302C86.7301 20.5993 87.2032 20.0468 87.8209 19.6445C88.4442 19.2422 89.1922 19.041 90.0649 19.041C90.9319 19.041 91.6601 19.2252 92.2494 19.5935C92.8444 19.9618 93.2921 20.4775 93.5924 21.1405C93.8984 21.7978 94.0514 22.5685 94.0514 23.4525V24.0815H87.9739ZM87.9739 22.798H92.0964C92.0964 22.373 92.0227 21.9905 91.8754 21.6505C91.7281 21.3048 91.5014 21.0328 91.1954 20.8345C90.8951 20.6305 90.5154 20.5285 90.0564 20.5285C89.6031 20.5285 89.2206 20.639 88.9089 20.86C88.5972 21.081 88.3621 21.3672 88.2034 21.7185C88.0447 22.0642 87.9682 22.424 87.9739 22.798ZM99.5408 28.17C98.3791 28.17 97.4668 27.7705 96.8038 26.9715C96.1408 26.1725 95.8093 25.0363 95.8093 23.563C95.8093 22.645 95.9425 21.8488 96.2088 21.1745C96.4808 20.4945 96.8775 19.9703 97.3988 19.602C97.9258 19.228 98.5775 19.041 99.3538 19.041C99.7165 19.041 100.045 19.0863 100.34 19.177C100.64 19.262 100.906 19.3753 101.139 19.517C101.371 19.6587 101.567 19.8145 101.725 19.9845C101.89 20.1545 102.017 20.3245 102.108 20.4945V15.369H104.182V28H102.652L102.422 26.198C102.354 26.4077 102.252 26.6287 102.116 26.861C101.986 27.0877 101.807 27.3002 101.581 27.4985C101.36 27.6968 101.082 27.8583 100.748 27.983C100.413 28.1077 100.011 28.17 99.5408 28.17ZM99.9658 26.6485C100.708 26.6485 101.249 26.4077 101.589 25.926C101.935 25.4387 102.108 24.634 102.108 23.512C102.102 22.8717 102.023 22.3333 101.87 21.897C101.722 21.4607 101.493 21.132 101.181 20.911C100.875 20.69 100.479 20.5795 99.9913 20.5795C99.368 20.5795 98.8551 20.809 98.4528 21.268C98.0505 21.727 97.8493 22.475 97.8493 23.512C97.8493 24.5433 98.0335 25.3253 98.4018 25.858C98.7701 26.385 99.2915 26.6485 99.9658 26.6485ZM109.086 19.211V28H107.097V19.211H109.086ZM109.111 15.7175V17.6725H107.063V15.7175H109.111ZM112.007 28V19.211H114.03V20.469C114.166 20.2423 114.35 20.0242 114.583 19.8145C114.821 19.6048 115.112 19.4348 115.458 19.3045C115.804 19.1742 116.209 19.109 116.674 19.109C117.218 19.109 117.722 19.2167 118.187 19.432C118.657 19.6473 119.034 19.9845 119.317 20.4435C119.606 20.9025 119.751 21.4947 119.751 22.22V28H117.677V22.4665C117.677 21.8885 117.518 21.4607 117.201 21.183C116.883 20.8997 116.484 20.758 116.002 20.758C115.673 20.758 115.362 20.8147 115.067 20.928C114.772 21.0357 114.532 21.2028 114.345 21.4295C114.163 21.6505 114.073 21.9282 114.073 22.2625V28H112.007ZM126.4 30.737V19.211H128.465L128.482 20.5965C128.596 20.4038 128.74 20.214 128.916 20.027C129.097 19.84 129.304 19.6728 129.536 19.5255C129.774 19.3782 130.038 19.262 130.327 19.177C130.616 19.0863 130.933 19.041 131.279 19.041C131.953 19.041 132.551 19.2025 133.072 19.5255C133.594 19.8428 134.002 20.333 134.296 20.996C134.597 21.659 134.747 22.4977 134.747 23.512C134.747 24.549 134.594 25.4132 134.288 26.1045C133.982 26.7958 133.554 27.3143 133.004 27.66C132.455 28 131.817 28.17 131.092 28.17C130.758 28.17 130.452 28.1247 130.174 28.034C129.902 27.9433 129.658 27.8187 129.443 27.66C129.228 27.5013 129.038 27.3285 128.873 27.1415C128.715 26.9545 128.582 26.759 128.474 26.555V30.737H126.4ZM130.633 26.623C131.256 26.623 131.772 26.3765 132.18 25.8835C132.588 25.3848 132.792 24.6057 132.792 23.546C132.792 22.628 132.599 21.9055 132.214 21.3785C131.834 20.8458 131.307 20.5795 130.633 20.5795C129.908 20.5795 129.364 20.86 129.001 21.421C128.638 21.9763 128.457 22.6847 128.457 23.546C128.457 24.1013 128.536 24.6142 128.695 25.0845C128.859 25.5492 129.1 25.9232 129.417 26.2065C129.74 26.4842 130.146 26.623 130.633 26.623ZM136.917 28V19.211H138.897V21.115C139.039 20.6787 139.24 20.3075 139.501 20.0015C139.767 19.6898 140.079 19.4518 140.436 19.2875C140.793 19.1232 141.181 19.041 141.6 19.041C141.702 19.041 141.801 19.0467 141.898 19.058C141.994 19.0693 142.065 19.0892 142.11 19.1175V21.098C142.048 21.0697 141.966 21.0498 141.864 21.0385C141.767 21.0272 141.682 21.0215 141.609 21.0215C141.184 20.9875 140.807 21.0045 140.478 21.0725C140.155 21.1405 139.88 21.2567 139.654 21.421C139.433 21.5797 139.266 21.7837 139.152 22.033C139.039 22.2767 138.982 22.5628 138.982 22.8915V28H136.917ZM147.577 28.17C146.738 28.17 146.007 27.9915 145.384 27.6345C144.761 27.2718 144.276 26.7533 143.931 26.079C143.591 25.4047 143.421 24.5943 143.421 23.648C143.421 22.73 143.585 21.9253 143.914 21.234C144.248 20.5427 144.727 20.0043 145.35 19.619C145.973 19.2337 146.719 19.041 147.586 19.041C148.424 19.041 149.152 19.2252 149.77 19.5935C150.388 19.9618 150.864 20.4888 151.198 21.1745C151.538 21.8602 151.708 22.6847 151.708 23.648C151.708 24.5377 151.547 25.3225 151.224 26.0025C150.906 26.6768 150.439 27.2067 149.821 27.592C149.209 27.9773 148.461 28.17 147.577 28.17ZM147.586 26.5975C148.062 26.5975 148.453 26.4672 148.759 26.2065C149.07 25.9458 149.3 25.5888 149.447 25.1355C149.6 24.6822 149.677 24.1665 149.677 23.5885C149.677 23.0502 149.609 22.5543 149.473 22.101C149.342 21.6477 149.121 21.285 148.81 21.013C148.504 20.7353 148.096 20.5965 147.586 20.5965C147.104 20.5965 146.704 20.724 146.387 20.979C146.075 21.2283 145.84 21.5797 145.682 22.033C145.529 22.4807 145.452 22.9992 145.452 23.5885C145.452 24.1212 145.52 24.617 145.656 25.076C145.798 25.5293 146.024 25.8977 146.336 26.181C146.648 26.4587 147.064 26.5975 147.586 26.5975ZM158.727 19.211V20.673H156.747V28H154.681V20.673H152.947V19.211H154.681V17.902C154.681 17.1993 154.874 16.6582 155.259 16.2785C155.65 15.8988 156.214 15.709 156.951 15.709H158.804L158.812 17.12H157.588C157.254 17.12 157.025 17.2078 156.9 17.3835C156.775 17.5535 156.713 17.8227 156.713 18.191V19.211H158.727ZM162.544 19.211V28H160.555V19.211H162.544ZM162.569 15.7175V17.6725H160.521V15.7175H162.569ZM167.979 28.1275C167.412 28.1275 166.959 28.0567 166.619 27.915C166.279 27.7733 166.024 27.5835 165.854 27.3455C165.684 27.1075 165.573 26.8412 165.522 26.5465C165.471 26.2462 165.446 25.9402 165.446 25.6285V15.369H167.469V25.3905C167.469 25.7702 167.545 26.0648 167.698 26.2745C167.857 26.4842 168.112 26.606 168.463 26.64L168.905 26.657V27.9575C168.752 28.0028 168.596 28.0425 168.438 28.0765C168.279 28.1105 168.126 28.1275 167.979 28.1275ZM172.605 24.0815C172.6 24.5802 172.679 25.0222 172.843 25.4075C173.008 25.7928 173.251 26.096 173.574 26.317C173.897 26.5323 174.297 26.64 174.773 26.64C175.26 26.64 175.682 26.5323 176.039 26.317C176.402 26.096 176.643 25.7617 176.762 25.314H178.657C178.555 25.926 178.312 26.4445 177.926 26.8695C177.541 27.2945 177.073 27.6175 176.524 27.8385C175.98 28.0595 175.413 28.17 174.824 28.17C173.974 28.17 173.226 27.9915 172.58 27.6345C171.939 27.2718 171.438 26.7562 171.075 26.0875C170.718 25.4188 170.54 24.6227 170.54 23.699C170.54 22.798 170.704 21.999 171.033 21.302C171.361 20.5993 171.835 20.0468 172.452 19.6445C173.076 19.2422 173.824 19.041 174.696 19.041C175.563 19.041 176.291 19.2252 176.881 19.5935C177.476 19.9618 177.923 20.4775 178.224 21.1405C178.53 21.7978 178.683 22.5685 178.683 23.4525V24.0815H172.605ZM172.605 22.798H176.728C176.728 22.373 176.654 21.9905 176.507 21.6505C176.359 21.3048 176.133 21.0328 175.827 20.8345C175.526 20.6305 175.147 20.5285 174.688 20.5285C174.234 20.5285 173.852 20.639 173.54 20.86C173.229 21.081 172.993 21.3672 172.835 21.7185C172.676 22.0642 172.6 22.424 172.605 22.798Z" fill="#2E3855"/>
<rect x="0.5" y="0.5" width="199" height="43" rx="5.5" stroke="#2E3855"/>
</svg>
