<svg width="98" height="55" viewBox="0 0 98 55" fill="none" xmlns="http://www.w3.org/2000/svg">
<path d="M16.3903 23.7049C17.6635 23.7076 18.9177 23.3959 20.0416 22.7975C21.1654 22.1992 22.1242 21.3327 22.8328 20.2749C23.5414 19.2171 23.978 18.0007 24.1037 16.7337C24.2295 15.4667 24.0405 14.1883 23.5536 13.0118C23.0667 11.8354 22.2969 10.7973 21.3125 9.98976C20.3282 9.18221 19.1597 8.63012 17.9108 8.3825C16.6619 8.13489 15.3712 8.19939 14.1532 8.57029C12.9352 8.94119 11.8276 9.60703 10.9286 10.5087C10.1953 11.2143 9.61498 12.0631 9.22375 13.0025C8.83251 13.942 8.63874 14.9518 8.65447 15.9693V23.7046H0.91968V15.9696C0.918701 13.9377 1.3182 11.9256 2.09534 10.0482C2.87247 8.17087 4.01201 6.46509 5.4488 5.02839C6.88558 3.5917 8.59145 2.45228 10.4689 1.67527C12.3463 0.898258 14.3584 0.498889 16.3903 0.500002C19.4507 0.500629 22.4422 1.40879 24.9865 3.10964C27.5307 4.8105 29.5135 7.22763 30.6839 10.0554C31.8544 12.8831 32.16 15.9945 31.5622 18.9959C30.9643 21.9974 29.4898 24.7541 27.3251 26.9175C25.907 28.3769 24.2055 29.5309 22.325 30.3086C20.4446 31.0863 18.425 31.4712 16.3903 31.4397V23.7049Z" fill="white"/>
<path d="M8.65447 26.6367H0.919678V39.1743H8.65447V26.6367Z" fill="white"/>
<path d="M33.6443 23.7044V15.9696C33.6443 11.8667 35.2742 7.9318 38.1754 5.0306C41.0766 2.12939 45.0115 0.499512 49.1144 0.499512C53.2173 0.499512 57.1522 2.12939 60.0534 5.0306C62.9546 7.9318 64.5845 11.8667 64.5845 15.9696H56.8492C56.8492 13.9181 56.0342 11.9507 54.5836 10.5001C53.133 9.0495 51.1656 8.23456 49.1141 8.23456C47.0627 8.23456 45.0952 9.0495 43.6446 10.5001C42.194 11.9507 41.3791 13.9181 41.3791 15.9696H49.1139V23.7044H33.6443Z" fill="#3F9378"/>
<path d="M41.3791 26.6367H33.6443V39.1743H41.3791V26.6367Z" fill="white"/>
<path d="M81.8387 23.7052C83.3651 23.7028 84.8565 23.2482 86.1246 22.3987C87.3928 21.5492 88.3807 20.343 88.9638 18.9324C89.5468 17.5218 89.6988 15.97 89.4004 14.4731C89.1021 12.9762 88.3669 11.6012 87.2876 10.5219C86.2083 9.44254 84.8335 8.70723 83.3366 8.4088C81.8397 8.11038 80.2879 8.26222 78.8772 8.84516C77.4666 9.4281 76.2603 10.416 75.4107 11.6841C74.5612 12.9521 74.1064 14.4435 74.1039 15.9699V23.7052H66.3691V15.9699C66.3686 12.9094 67.2757 9.91743 68.9757 7.37248C70.6757 4.82753 73.0922 2.84389 75.9196 1.67244C78.7471 0.500999 81.8584 0.194379 84.8602 0.791356C87.8619 1.38833 90.6192 2.86209 92.7833 5.02624C94.9473 7.19039 96.421 9.94771 97.0179 12.9495C97.6147 15.9512 97.308 19.0625 96.1365 21.89C94.965 24.7174 92.9812 27.1338 90.4362 28.8337C87.8912 30.5337 84.8992 31.4406 81.8387 31.44V23.7052Z" fill="white"/>
<path d="M74.1039 26.6367H66.3691V39.1743H74.1039V26.6367Z" fill="white"/>
<path d="M0.919678 49.314H3.03439C4.12488 49.314 4.85922 49.922 4.85922 50.8943C4.85922 52.0069 4.02089 52.5194 3.01052 52.5194H2.02377V54.4262H0.919678V49.314ZM2.02505 51.6364H2.87109C3.38283 51.6364 3.74666 51.4359 3.74666 50.9175C3.74666 50.3906 3.36151 50.1903 2.89318 50.1903H2.02505V51.6364Z" fill="white"/>
<path d="M11.958 51.8513C11.958 53.2758 11.1045 54.5001 9.44166 54.5001C7.83175 54.5001 6.99341 53.3357 6.99341 51.8662C6.99341 50.3826 7.9211 49.2397 9.50971 49.2397C11.0087 49.2397 11.9585 50.2861 11.9585 51.8513M8.13704 51.8441C8.13704 52.8455 8.57354 53.6022 9.48044 53.6022C10.4672 53.6022 10.8156 52.7787 10.8156 51.8662C10.8156 50.8943 10.4153 50.1374 9.46554 50.1374C8.53811 50.1374 8.13704 50.8496 8.13704 51.8441Z" fill="white"/>
<path d="M15.176 54.4259L13.8701 49.314H15.0512C15.5332 51.6585 15.7486 52.7033 15.8082 53.2681H15.8154C16.0082 52.3258 16.5056 50.5449 16.8021 49.314H17.7966C18.0639 50.293 18.5756 52.2742 18.7466 53.2168H18.7538C18.9245 52.0888 19.4214 50.1076 19.6073 49.314H20.6757L19.2953 54.4259H18.1453C17.8785 53.2907 17.4263 51.6364 17.2466 50.7608H17.2394C17.054 51.6734 16.5939 53.3945 16.3194 54.4259H15.176Z" fill="white"/>
<path d="M26.3405 52.2223H23.8918V53.5211H26.5929L26.4594 54.4262H22.8159V49.314H26.445V50.2191H23.8925V51.3095H26.3413L26.3405 52.2223Z" fill="white"/>
<path d="M29.9446 52.3779V54.4256H28.8613V49.314H31.1093C32.2224 49.314 32.8235 49.922 32.8235 50.7162C32.8401 50.9697 32.7777 51.2222 32.6449 51.4389C32.512 51.6555 32.3152 51.8256 32.0817 51.9258C32.3338 52.0221 32.7192 52.2819 32.7192 53.2019V53.4543C32.7028 53.78 32.7279 54.1065 32.7939 54.4259H31.7412C31.6461 54.0504 31.6114 53.6622 31.6385 53.2758V53.2014C31.6385 52.645 31.4973 52.3777 30.6738 52.3777L29.9446 52.3779ZM29.9446 51.4949H30.8726C31.4739 51.4949 31.7112 51.2651 31.7112 50.8422C31.7112 50.4265 31.4367 50.189 30.8952 50.189H29.9451L29.9446 51.4949Z" fill="white"/>
<path d="M38.5332 49.314H42.1022V50.2191H39.6168V51.4731H41.9464V52.3782H39.6168V54.4259H38.5332V49.314Z" fill="white"/>
<path d="M49.1857 51.8513C49.1857 53.2758 48.3323 54.5001 46.6694 54.5001C45.0595 54.5001 44.2212 53.3357 44.2212 51.8662C44.2212 50.3826 45.1489 49.2397 46.7375 49.2397C48.2365 49.2397 49.1863 50.2861 49.1863 51.8513M45.3648 51.8441C45.3648 52.8455 45.8013 53.6022 46.7082 53.6022C47.695 53.6022 48.0434 52.7787 48.0434 51.8662C48.0434 50.8943 47.6431 50.1374 46.6933 50.1374C45.7659 50.1374 45.3651 50.8496 45.3651 51.8441" fill="white"/>
<path d="M52.7154 52.3779V54.4256H51.6321V49.314H53.8801C54.9931 49.314 55.5942 49.922 55.5942 50.7162C55.6109 50.9698 55.5484 51.2223 55.4155 51.439C55.2826 51.6556 55.0858 51.8257 54.8522 51.9258C55.1046 52.0221 55.49 52.2819 55.49 53.2019V53.4543C55.4735 53.78 55.4985 54.1065 55.5644 54.4259H54.5117C54.4166 54.0504 54.382 53.6622 54.409 53.2758V53.2014C54.409 52.645 54.2678 52.3777 53.4443 52.3777L52.7154 52.3779ZM52.7154 51.4949H53.6426C54.2436 51.4949 54.4811 51.2651 54.4811 50.8422C54.4811 50.4265 54.2067 50.189 53.6652 50.189H52.7151L52.7154 51.4949Z" fill="white"/>
<path d="M61.3042 49.314H63.4189C64.5094 49.314 65.2437 49.922 65.2437 50.8943C65.2437 52.0069 64.4054 52.5194 63.395 52.5194H62.4083V54.4262H61.3042V49.314ZM62.4096 51.6364H63.2556C63.7674 51.6364 64.1312 51.4359 64.1312 50.9175C64.1312 50.3906 63.746 50.1903 63.2777 50.1903H62.4096V51.6364Z" fill="white"/>
<path d="M67.5569 49.314H68.6623V53.5208H71.2148L71.0884 54.4256H67.5569V49.314Z" fill="white"/>
<path d="M74.5969 53.2462L74.2038 54.4274H73.1128L74.8488 49.3154H76.2353L78.053 54.4274H76.8885L76.4656 53.2462H74.5969ZM76.2294 52.3411C75.8656 51.2579 75.6358 50.5677 75.5105 50.1073H75.5033C75.3769 50.6118 75.1246 51.4129 74.8357 52.3411H76.2294Z" fill="white"/>
<path d="M80.189 54.4259V49.314H81.5616C82.1994 50.4566 83.3793 52.5338 83.6158 53.0902H83.6306C83.5711 52.5561 83.5711 51.6657 83.5711 50.8276V49.314H84.5724V54.4259H83.2745C82.7253 53.4245 81.4199 51.05 81.1598 50.4566H81.1449C81.1824 50.9015 81.1962 51.9551 81.1962 52.8679V54.4259H80.189Z" fill="white"/>
<path d="M90.7968 52.2223H88.3481V53.5211H91.049L90.9155 54.4262H87.2725V49.314H90.9006V50.2191H88.3481V51.3095H90.7968V52.2223Z" fill="white"/>
<path d="M94.5417 50.2191H92.9834V49.314H97.1979V50.2191H95.6471V54.4259H94.5417V50.2191Z" fill="white"/>
</svg>
