<svg width="252" height="44" viewBox="0 0 252 44" fill="none" xmlns="http://www.w3.org/2000/svg">
<rect x="0.5" y="0.5" width="251" height="43" rx="5.5" stroke="#2E3855"/>
<g clip-path="url(#clip0_528_6990)">
<path d="M81.0003 30.3327C85.6027 30.3327 89.3337 26.6017 89.3337 21.9993C89.3337 17.397 85.6027 13.666 81.0003 13.666C76.398 13.666 72.667 17.397 72.667 21.9993C72.667 26.6017 76.398 30.3327 81.0003 30.3327Z" stroke="#2E3855" stroke-width="2" stroke-linecap="round" stroke-linejoin="round"/>
<path d="M77.667 22H84.3337" stroke="#2E3855" stroke-width="2" stroke-linecap="round" stroke-linejoin="round"/>
</g>
<path d="M111.685 28H109.526L107.409 23.0105H104.553V28H102.488V15.709H107.477C108.418 15.709 109.191 15.8563 109.798 16.151C110.41 16.44 110.863 16.8508 111.158 17.3835C111.452 17.9105 111.6 18.5282 111.6 19.2365C111.6 19.8938 111.492 20.4463 111.277 20.894C111.061 21.336 110.781 21.6987 110.435 21.982C110.095 22.2597 109.73 22.4863 109.339 22.662L111.685 28ZM107.01 21.37C107.792 21.37 108.401 21.1887 108.837 20.826C109.279 20.4633 109.5 19.959 109.5 19.313C109.5 18.6783 109.296 18.1882 108.888 17.8425C108.48 17.4968 107.942 17.324 107.273 17.324H104.553V21.37H107.01ZM115.509 24.0815C115.503 24.5802 115.582 25.0222 115.747 25.4075C115.911 25.7928 116.155 26.096 116.478 26.317C116.801 26.5323 117.2 26.64 117.676 26.64C118.163 26.64 118.586 26.5323 118.943 26.317C119.305 26.096 119.546 25.7617 119.665 25.314H121.561C121.459 25.926 121.215 26.4445 120.83 26.8695C120.444 27.2945 119.977 27.6175 119.427 27.8385C118.883 28.0595 118.316 28.17 117.727 28.17C116.877 28.17 116.129 27.9915 115.483 27.6345C114.843 27.2718 114.341 26.7562 113.979 26.0875C113.622 25.4188 113.443 24.6227 113.443 23.699C113.443 22.798 113.607 21.999 113.936 21.302C114.265 20.5993 114.738 20.0468 115.356 19.6445C115.979 19.2422 116.727 19.041 117.6 19.041C118.467 19.041 119.195 19.2252 119.784 19.5935C120.379 19.9618 120.827 20.4775 121.127 21.1405C121.433 21.7978 121.586 22.5685 121.586 23.4525V24.0815H115.509ZM115.509 22.798H119.631C119.631 22.373 119.557 21.9905 119.41 21.6505C119.263 21.3048 119.036 21.0328 118.73 20.8345C118.43 20.6305 118.05 20.5285 117.591 20.5285C117.138 20.5285 116.755 20.639 116.444 20.86C116.132 21.081 115.897 21.3672 115.738 21.7185C115.579 22.0642 115.503 22.424 115.509 22.798ZM126.261 28.17C125.7 28.17 125.196 28.068 124.748 27.864C124.306 27.6543 123.958 27.3568 123.703 26.9715C123.454 26.5805 123.329 26.1073 123.329 25.552C123.329 24.583 123.677 23.852 124.374 23.359C125.077 22.866 126.196 22.6082 127.732 22.5855L129.041 22.5515V21.9565C129.041 21.4918 128.902 21.1292 128.624 20.8685C128.352 20.6022 127.927 20.4718 127.349 20.4775C126.924 20.4832 126.533 20.5852 126.176 20.7835C125.825 20.9762 125.593 21.302 125.479 21.761H123.72C123.754 21.1603 123.927 20.6588 124.238 20.2565C124.556 19.8485 124.989 19.5453 125.539 19.347C126.089 19.143 126.723 19.041 127.443 19.041C128.282 19.041 128.964 19.1515 129.491 19.3725C130.018 19.5935 130.407 19.9137 130.656 20.333C130.905 20.7467 131.03 21.2482 131.03 21.8375V28H129.287L129.126 26.419C128.809 27.082 128.406 27.541 127.919 27.796C127.437 28.0453 126.885 28.17 126.261 28.17ZM126.933 26.7675C127.188 26.7675 127.44 26.7222 127.689 26.6315C127.939 26.5352 128.165 26.4077 128.369 26.249C128.573 26.0847 128.735 25.9033 128.854 25.705C128.979 25.5067 129.041 25.2998 129.041 25.0845V23.699L127.961 23.716C127.429 23.7217 126.964 23.7783 126.567 23.886C126.171 23.9937 125.859 24.1665 125.632 24.4045C125.411 24.6368 125.301 24.9485 125.301 25.3395C125.301 25.7872 125.457 26.1385 125.768 26.3935C126.08 26.6428 126.468 26.7675 126.933 26.7675ZM137.011 28.17C135.85 28.17 134.937 27.7705 134.274 26.9715C133.611 26.1725 133.28 25.0363 133.28 23.563C133.28 22.645 133.413 21.8488 133.679 21.1745C133.951 20.4945 134.348 19.9703 134.869 19.602C135.396 19.228 136.048 19.041 136.824 19.041C137.187 19.041 137.516 19.0863 137.81 19.177C138.111 19.262 138.377 19.3753 138.609 19.517C138.842 19.6587 139.037 19.8145 139.196 19.9845C139.36 20.1545 139.488 20.3245 139.578 20.4945V15.369H141.652V28H140.122L139.893 26.198C139.825 26.4077 139.723 26.6287 139.587 26.861C139.456 27.0877 139.278 27.3002 139.051 27.4985C138.83 27.6968 138.553 27.8583 138.218 27.983C137.884 28.1077 137.482 28.17 137.011 28.17ZM137.436 26.6485C138.179 26.6485 138.72 26.4077 139.06 25.926C139.405 25.4387 139.578 24.634 139.578 23.512C139.573 22.8717 139.493 22.3333 139.34 21.897C139.193 21.4607 138.963 21.132 138.652 20.911C138.346 20.69 137.949 20.5795 137.462 20.5795C136.838 20.5795 136.326 20.809 135.923 21.268C135.521 21.727 135.32 22.475 135.32 23.512C135.32 24.5433 135.504 25.3253 135.872 25.858C136.241 26.385 136.762 26.6485 137.436 26.6485ZM150.965 28.1275C150.398 28.1275 149.945 28.0567 149.605 27.915C149.265 27.7733 149.01 27.5835 148.84 27.3455C148.67 27.1075 148.559 26.8412 148.508 26.5465C148.457 26.2462 148.432 25.9402 148.432 25.6285V15.369H150.455V25.3905C150.455 25.7702 150.531 26.0648 150.684 26.2745C150.843 26.4842 151.098 26.606 151.449 26.64L151.891 26.657V27.9575C151.738 28.0028 151.582 28.0425 151.424 28.0765C151.265 28.1105 151.112 28.1275 150.965 28.1275ZM155.591 24.0815C155.586 24.5802 155.665 25.0222 155.829 25.4075C155.994 25.7928 156.237 26.096 156.56 26.317C156.883 26.5323 157.283 26.64 157.759 26.64C158.246 26.64 158.668 26.5323 159.025 26.317C159.388 26.096 159.629 25.7617 159.748 25.314H161.643C161.541 25.926 161.298 26.4445 160.912 26.8695C160.527 27.2945 160.06 27.6175 159.51 27.8385C158.966 28.0595 158.399 28.17 157.81 28.17C156.96 28.17 156.212 27.9915 155.566 27.6345C154.926 27.2718 154.424 26.7562 154.061 26.0875C153.704 25.4188 153.526 24.6227 153.526 23.699C153.526 22.798 153.69 21.999 154.019 21.302C154.348 20.5993 154.821 20.0468 155.438 19.6445C156.062 19.2422 156.81 19.041 157.682 19.041C158.549 19.041 159.278 19.2252 159.867 19.5935C160.462 19.9618 160.91 20.4775 161.21 21.1405C161.516 21.7978 161.669 22.5685 161.669 23.4525V24.0815H155.591ZM155.591 22.798H159.714C159.714 22.373 159.64 21.9905 159.493 21.6505C159.346 21.3048 159.119 21.0328 158.813 20.8345C158.513 20.6305 158.133 20.5285 157.674 20.5285C157.221 20.5285 156.838 20.639 156.526 20.86C156.215 21.081 155.98 21.3672 155.821 21.7185C155.662 22.0642 155.586 22.424 155.591 22.798ZM167.21 28.17C166.598 28.17 166.017 28.0737 165.468 27.881C164.924 27.6827 164.465 27.3738 164.091 26.9545C163.722 26.5352 163.49 25.994 163.394 25.331H165.213C165.292 25.654 165.431 25.9175 165.629 26.1215C165.833 26.3255 166.074 26.4757 166.352 26.572C166.629 26.6627 166.913 26.708 167.202 26.708C167.729 26.708 168.154 26.6173 168.477 26.436C168.805 26.2547 168.97 25.9742 168.97 25.5945C168.97 25.3168 168.879 25.0958 168.698 24.9315C168.516 24.7672 168.227 24.6425 167.831 24.5575L166.156 24.175C165.414 24.0107 164.816 23.7387 164.363 23.359C163.915 22.9793 163.688 22.4438 163.683 21.7525C163.677 21.2312 163.807 20.7665 164.074 20.3585C164.34 19.9505 164.737 19.6303 165.264 19.398C165.791 19.16 166.442 19.041 167.219 19.041C168.244 19.041 169.066 19.2705 169.684 19.7295C170.301 20.1828 170.619 20.8317 170.636 21.676H168.876C168.814 21.2963 168.635 21.0017 168.341 20.792C168.046 20.5767 167.663 20.469 167.193 20.469C166.706 20.469 166.306 20.5625 165.995 20.7495C165.683 20.9365 165.527 21.2227 165.527 21.608C165.527 21.8743 165.646 22.084 165.884 22.237C166.122 22.39 166.479 22.5203 166.955 22.628L168.536 23.0105C168.989 23.1238 169.361 23.2768 169.65 23.4695C169.939 23.6622 170.165 23.8747 170.33 24.107C170.494 24.3337 170.607 24.5688 170.67 24.8125C170.738 25.0505 170.772 25.2715 170.772 25.4755C170.772 26.0422 170.624 26.5267 170.33 26.929C170.041 27.3257 169.63 27.6317 169.097 27.847C168.564 28.0623 167.935 28.17 167.21 28.17ZM176.249 28.17C175.637 28.17 175.056 28.0737 174.507 27.881C173.963 27.6827 173.504 27.3738 173.13 26.9545C172.761 26.5352 172.529 25.994 172.433 25.331H174.252C174.331 25.654 174.47 25.9175 174.668 26.1215C174.872 26.3255 175.113 26.4757 175.391 26.572C175.668 26.6627 175.952 26.708 176.241 26.708C176.768 26.708 177.193 26.6173 177.516 26.436C177.844 26.2547 178.009 25.9742 178.009 25.5945C178.009 25.3168 177.918 25.0958 177.737 24.9315C177.555 24.7672 177.266 24.6425 176.87 24.5575L175.195 24.175C174.453 24.0107 173.855 23.7387 173.402 23.359C172.954 22.9793 172.727 22.4438 172.722 21.7525C172.716 21.2312 172.846 20.7665 173.113 20.3585C173.379 19.9505 173.776 19.6303 174.303 19.398C174.83 19.16 175.481 19.041 176.258 19.041C177.283 19.041 178.105 19.2705 178.723 19.7295C179.34 20.1828 179.658 20.8317 179.675 21.676H177.915C177.853 21.2963 177.674 21.0017 177.38 20.792C177.085 20.5767 176.703 20.469 176.232 20.469C175.745 20.469 175.345 20.5625 175.034 20.7495C174.722 20.9365 174.566 21.2227 174.566 21.608C174.566 21.8743 174.685 22.084 174.923 22.237C175.161 22.39 175.518 22.5203 175.994 22.628L177.575 23.0105C178.029 23.1238 178.4 23.2768 178.689 23.4695C178.978 23.6622 179.204 23.8747 179.369 24.107C179.533 24.3337 179.646 24.5688 179.709 24.8125C179.777 25.0505 179.811 25.2715 179.811 25.4755C179.811 26.0422 179.663 26.5267 179.369 26.929C179.08 27.3257 178.669 27.6317 178.136 27.847C177.604 28.0623 176.975 28.17 176.249 28.17Z" fill="#2E3855"/>
<defs>
<clipPath id="clip0_528_6990">
<rect width="20" height="20" fill="white" transform="translate(71 12)"/>
</clipPath>
</defs>
</svg>
