<svg width="22" height="22" viewBox="0 0 22 22" fill="none" xmlns="http://www.w3.org/2000/svg">
<rect x="0.259277" y="0.171875" width="21" height="21" rx="10.5" fill="#E7F5F5"/>
<g clip-path="url(#clip0_135_457)">
<path fill-rule="evenodd" clip-rule="evenodd" d="M10.7591 5.7972C8.06673 5.7972 5.88411 7.97981 5.88411 10.6722C5.88411 13.3646 8.06673 15.5472 10.7591 15.5472C13.4515 15.5472 15.6341 13.3646 15.6341 10.6722C15.6341 7.97981 13.4515 5.7972 10.7591 5.7972ZM4.80078 10.6722C4.80078 7.3815 7.46842 4.71387 10.7591 4.71387C14.0498 4.71387 16.7174 7.3815 16.7174 10.6722C16.7174 13.9629 14.0498 16.6305 10.7591 16.6305C7.46842 16.6305 4.80078 13.9629 4.80078 10.6722Z" fill="#2E3855"/>
<path fill-rule="evenodd" clip-rule="evenodd" d="M10.7594 10.1299C11.0586 10.1299 11.3011 10.3724 11.3011 10.6715V12.8382C11.3011 13.1374 11.0586 13.3799 10.7594 13.3799C10.4603 13.3799 10.2178 13.1374 10.2178 12.8382V10.6715C10.2178 10.3724 10.4603 10.1299 10.7594 10.1299Z" fill="#2E3855"/>
<path fill-rule="evenodd" clip-rule="evenodd" d="M10.2178 8.50553C10.2178 8.20638 10.4603 7.96387 10.7594 7.96387H10.7649C11.064 7.96387 11.3065 8.20638 11.3065 8.50553C11.3065 8.80469 11.064 9.0472 10.7649 9.0472H10.7594C10.4603 9.0472 10.2178 8.80469 10.2178 8.50553Z" fill="#2E3855"/>
</g>
<defs>
<clipPath id="clip0_135_457">
<rect width="13" height="13" fill="white" transform="translate(4.25928 4.17188)"/>
</clipPath>
</defs>
</svg>
