<svg width="20" height="20" viewBox="0 0 20 20" fill="none" xmlns="http://www.w3.org/2000/svg">
<path fill-rule="evenodd" clip-rule="evenodd" d="M9.99992 2.50065C5.85778 2.50065 2.49992 5.85851 2.49992 10.0007C2.49992 14.1428 5.85778 17.5006 9.99992 17.5006C14.1421 17.5006 17.4999 14.1428 17.4999 10.0007C17.4999 5.85851 14.1421 2.50065 9.99992 2.50065ZM0.833252 10.0007C0.833252 4.93804 4.93731 0.833984 9.99992 0.833984C15.0625 0.833984 19.1666 4.93804 19.1666 10.0007C19.1666 15.0633 15.0625 19.1673 9.99992 19.1673C4.93731 19.1673 0.833252 15.0633 0.833252 10.0007Z" fill="white"/>
<path fill-rule="evenodd" clip-rule="evenodd" d="M9.41083 6.07806C9.73626 5.75263 10.2639 5.75263 10.5893 6.07806L13.9227 9.4114C14.2481 9.73683 14.2481 10.2645 13.9227 10.5899L10.5893 13.9232C10.2639 14.2487 9.73626 14.2487 9.41083 13.9232C9.08539 13.5978 9.08539 13.0702 9.41083 12.7447L12.1549 10.0007L9.41083 7.25657C9.08539 6.93114 9.08539 6.4035 9.41083 6.07806Z" fill="white"/>
<path fill-rule="evenodd" clip-rule="evenodd" d="M5.83325 9.99935C5.83325 9.53911 6.20635 9.16602 6.66659 9.16602H13.3333C13.7935 9.16602 14.1666 9.53911 14.1666 9.99935C14.1666 10.4596 13.7935 10.8327 13.3333 10.8327H6.66659C6.20635 10.8327 5.83325 10.4596 5.83325 9.99935Z" fill="white"/>
</svg>
