<svg width="97" height="54" viewBox="0 0 97 54" fill="none" xmlns="http://www.w3.org/2000/svg">
<g clip-path="url(#clip0_0_75)">
<path d="M15.4706 23.2049C16.7438 23.2076 17.998 22.8959 19.1219 22.2975C20.2457 21.6992 21.2045 20.8327 21.9131 19.7749C22.6218 18.7171 23.0583 17.5007 23.184 16.2337C23.3098 14.9667 23.1208 13.6883 22.6339 12.5118C22.147 11.3354 21.3772 10.2973 20.3929 9.48976C19.4085 8.68221 18.24 8.13012 16.9911 7.8825C15.7422 7.63489 14.4515 7.69939 13.2335 8.07029C12.0155 8.44119 10.9079 9.10703 10.009 10.0087C9.27564 10.7143 8.69531 11.5631 8.30407 12.5025C7.91284 13.442 7.71906 14.4518 7.73479 15.4693V23.2046H1.79423e-06V15.4696C-0.000977003 13.4377 0.398522 11.4256 1.17566 9.54823C1.9528 7.67087 3.09233 5.96509 4.52912 4.52839C5.96591 3.0917 7.67177 1.95228 9.54919 1.17527C11.4266 0.398258 13.4388 -0.00111137 15.4706 2.32284e-06C18.531 0.00062865 21.5225 0.908794 24.0668 2.60964C26.611 4.3105 28.5938 6.72763 29.7643 9.55538C30.9347 12.3831 31.2404 15.4945 30.6425 18.4959C30.0446 21.4974 28.5701 24.2541 26.4055 26.4175C24.9874 27.8769 23.2858 29.0309 21.4053 29.8086C19.5249 30.5863 17.5053 30.9712 15.4706 30.9397V23.2049Z" fill="white"/>
<path d="M7.73479 26.1367H0V38.6743H7.73479V26.1367Z" fill="white"/>
<path d="M32.7246 23.2049V15.4701C32.7246 11.3672 34.3545 7.43229 37.2557 4.53109C40.1569 1.62988 44.0918 0 48.1947 0C52.2976 0 56.2325 1.62988 59.1337 4.53109C62.0349 7.43229 63.6648 11.3672 63.6648 15.4701H55.9295C55.9295 13.4186 55.1146 11.4512 53.664 10.0006C52.2134 8.54999 50.2459 7.73505 48.1944 7.73505C46.143 7.73505 44.1755 8.54999 42.7249 10.0006C41.2743 11.4512 40.4594 13.4186 40.4594 15.4701H48.1942V23.2049H32.7246Z" fill="#3F9378"/>
<path d="M40.4594 26.1367H32.7246V38.6743H40.4594V26.1367Z" fill="white"/>
<path d="M80.919 23.2052C82.4454 23.2028 83.9368 22.7482 85.205 21.8987C86.4731 21.0492 87.4611 19.843 88.0441 18.4324C88.6271 17.0218 88.7791 15.47 88.4807 13.9731C88.1824 12.4762 87.4472 11.1012 86.3679 10.0219C85.2887 8.94254 83.9138 8.20723 82.4169 7.9088C80.92 7.61038 79.3682 7.76222 77.9575 8.34516C76.5469 8.9281 75.3406 9.91599 74.491 11.1841C73.6415 12.4521 73.1867 13.9435 73.1843 15.4699V23.2052H65.4495V15.4699C65.4489 12.4094 66.356 9.41743 68.056 6.87248C69.756 4.32753 72.1725 2.34389 75 1.17244C77.8274 0.000998705 80.9388 -0.305621 83.9405 0.291356C86.9422 0.888333 89.6995 2.36209 91.8636 4.52624C94.0277 6.69039 95.5013 9.44771 96.0982 12.4495C96.6951 15.4512 96.3884 18.5625 95.2168 21.39C94.0453 24.2174 92.0616 26.6338 89.5166 28.3337C86.9715 30.0337 83.9796 30.9406 80.919 30.94V23.2052Z" fill="white"/>
<path d="M73.1843 26.1367H65.4495V38.6743H73.1843V26.1367Z" fill="white"/>
<path d="M0 48.8145H2.11472C3.2052 48.8145 3.93955 49.4225 3.93955 50.3948C3.93955 51.5074 3.10121 52.0199 2.09084 52.0199H1.10409V53.9266H0V48.8145ZM1.10537 51.1369H1.95142C2.46315 51.1369 2.82698 50.9364 2.82698 50.4179C2.82698 49.8911 2.44184 49.6908 1.9735 49.6908H1.10537V51.1369Z" fill="white"/>
<path d="M11.0383 51.3518C11.0383 52.7763 10.1848 54.0006 8.52199 54.0006C6.91207 54.0006 6.07373 52.8361 6.07373 51.3667C6.07373 49.8831 7.00142 48.7402 8.59003 48.7402C10.089 48.7402 11.0388 49.7865 11.0388 51.3518M7.21736 51.3446C7.21736 52.346 7.65386 53.1027 8.56076 53.1027C9.54751 53.1027 9.89594 52.2792 9.89594 51.3667C9.89594 50.3948 9.49564 49.6379 8.54587 49.6379C7.61843 49.6379 7.21736 50.3501 7.21736 51.3446Z" fill="white"/>
<path d="M14.2563 53.9264L12.9504 48.8145H14.1316C14.6135 51.159 14.8289 52.2037 14.8885 52.7686H14.8957C15.0885 51.8263 15.5859 50.0454 15.8824 48.8145H16.8769C17.1442 49.7935 17.6559 51.7747 17.8269 52.7173H17.8341C18.0049 51.5893 18.5017 49.6081 18.6876 48.8145H19.756L18.3756 53.9264H17.2256C16.9588 52.7912 16.5066 51.1369 16.3269 50.2613H16.3197C16.1343 51.1739 15.6742 52.895 15.3997 53.9264H14.2563Z" fill="white"/>
<path d="M25.4209 51.7228H22.9721V53.0216H25.6733L25.5397 53.9266H21.8962V48.8145H25.5254V49.7195H22.9729V50.81H25.4216L25.4209 51.7228Z" fill="white"/>
<path d="M29.0249 51.8784V53.9261H27.9417V48.8145H30.1896C31.3027 48.8145 31.9038 49.4225 31.9038 50.2166C31.9204 50.4702 31.858 50.7227 31.7252 50.9394C31.5923 51.156 31.3956 51.3261 31.162 51.4263C31.4141 51.5226 31.7996 51.7824 31.7996 52.7024V52.9548C31.7831 53.2805 31.8082 53.607 31.8743 53.9264H30.8215C30.7264 53.5509 30.6917 53.1627 30.7188 52.7763V52.7019C30.7188 52.1455 30.5776 51.8782 29.7542 51.8782L29.0249 51.8784ZM29.0249 50.9954H29.9529C30.5542 50.9954 30.7915 50.7656 30.7915 50.3427C30.7915 49.927 30.517 49.6895 29.9755 49.6895H29.0255L29.0249 50.9954Z" fill="white"/>
<path d="M37.6135 48.8145H41.1826V49.7195H38.6971V50.9736H41.0267V51.8787H38.6971V53.9264H37.6135V48.8145Z" fill="white"/>
<path d="M48.2661 51.3518C48.2661 52.7763 47.4126 54.0006 45.7498 54.0006C44.1399 54.0006 43.3015 52.8361 43.3015 51.3667C43.3015 49.8831 44.2292 48.7402 45.8178 48.7402C47.3168 48.7402 48.2666 49.7865 48.2666 51.3518M44.4451 51.3446C44.4451 52.346 44.8816 53.1027 45.7885 53.1027C46.7753 53.1027 47.1237 52.2792 47.1237 51.3667C47.1237 50.3948 46.7234 49.6379 45.7737 49.6379C44.8462 49.6379 44.4454 50.3501 44.4454 51.3446" fill="white"/>
<path d="M51.7957 51.8784V53.9261H50.7124V48.8145H52.9604C54.0735 48.8145 54.6746 49.4225 54.6746 50.2166C54.6912 50.4703 54.6288 50.7228 54.4959 50.9395C54.363 51.1561 54.1661 51.3262 53.9325 51.4263C54.1849 51.5226 54.5703 51.7824 54.5703 52.7024V52.9548C54.5538 53.2805 54.5788 53.607 54.6448 53.9264H53.592C53.497 53.5509 53.4623 53.1627 53.4893 52.7763V52.7019C53.4893 52.1455 53.3481 51.8782 52.5246 51.8782L51.7957 51.8784ZM51.7957 50.9954H52.7229C53.324 50.9954 53.5615 50.7656 53.5615 50.3427C53.5615 49.927 53.287 49.6895 52.7455 49.6895H51.7954L51.7957 50.9954Z" fill="white"/>
<path d="M60.3845 48.8145H62.4992C63.5897 48.8145 64.3241 49.4225 64.3241 50.3948C64.3241 51.5074 63.4857 52.0199 62.4754 52.0199H61.4886V53.9266H60.3845V48.8145ZM61.4899 51.1369H62.3359C62.8477 51.1369 63.2115 50.9364 63.2115 50.4179C63.2115 49.8911 62.8264 49.6908 62.358 49.6908H61.4899V51.1369Z" fill="white"/>
<path d="M66.6372 48.8145H67.7426V53.0213H70.2951L70.1687 53.9261H66.6372V48.8145Z" fill="white"/>
<path d="M73.6772 52.7462L73.2841 53.9274H72.1931L73.9291 48.8154H75.3156L77.1333 53.9274H75.9689L75.5459 52.7462H73.6772ZM75.3097 51.8411C74.9459 50.7579 74.7161 50.0677 74.5908 49.6073H74.5836C74.4573 50.1118 74.2049 50.9129 73.916 51.8411H75.3097Z" fill="white"/>
<path d="M79.2693 53.9264V48.8145H80.642C81.2798 49.9571 82.4596 52.0343 82.6961 52.5907H82.711C82.6514 52.0566 82.6514 51.1662 82.6514 50.3281V48.8145H83.6528V53.9264H82.3548C81.8056 52.925 80.5002 50.5504 80.2401 49.9571H80.2252C80.2627 50.402 80.2766 51.4555 80.2766 52.3683V53.9264H79.2693Z" fill="white"/>
<path d="M89.8774 51.7228H87.4286V53.0216H90.1295L89.996 53.9266H86.353V48.8145H89.9811V49.7195H87.4286V50.81H89.8774V51.7228Z" fill="white"/>
<path d="M93.622 49.7195H92.0637V48.8145H96.2783V49.7195H94.7274V53.9264H93.622V49.7195Z" fill="white"/>
</g>
<defs>
<clipPath id="clip0_0_75">
<rect width="96.3888" height="54" fill="white"/>
</clipPath>
</defs>
</svg>
