<svg width="186" height="160" viewBox="0 0 186 160" fill="none" xmlns="http://www.w3.org/2000/svg">
<path d="M5.04668 0.607422H121.465C124.226 0.607422 126.465 2.846 126.465 5.60743V155C126.465 157.762 124.226 160 121.465 160H5.04669C2.28526 160 0.0466919 157.762 0.0466919 155V5.60742C0.0466919 2.846 2.28526 0.607422 5.04668 0.607422Z" fill="#D0E6F2"/>
<path d="M113.223 29.0918H13.2876" stroke="white" stroke-width="1.5" stroke-miterlimit="10" stroke-linecap="round"/>
<path d="M113.223 48.293H13.2876" stroke="white" stroke-width="1.5" stroke-miterlimit="10" stroke-linecap="round"/>
<path d="M113.223 67.4941H13.2876" stroke="white" stroke-width="1.5" stroke-miterlimit="10" stroke-linecap="round"/>
<path d="M113.223 86.6973H13.2876" stroke="white" stroke-width="1.5" stroke-miterlimit="10" stroke-linecap="round"/>
<path d="M113.223 105.896H13.2876" stroke="white" stroke-width="1.5" stroke-miterlimit="10" stroke-linecap="round"/>
<path d="M113.223 125.1H13.2876" stroke="white" stroke-width="1.5" stroke-miterlimit="10" stroke-linecap="round"/>
<path d="M131.523 67.2825C121.128 67.2825 112.701 58.9086 112.701 48.5788C112.701 38.249 121.128 29.875 131.523 29.875C141.917 29.875 150.344 38.249 150.344 48.5788C150.344 58.9086 141.917 67.2825 131.523 67.2825Z" fill="#FFA96B"/>
<path d="M131.523 62.1721C123.968 62.1721 117.843 56.0855 117.843 48.5773C117.843 41.069 123.968 34.9824 131.523 34.9824C139.078 34.9824 145.203 41.069 145.203 48.5773C145.203 56.0855 139.078 62.1721 131.523 62.1721Z" stroke="white" stroke-width="1.5" stroke-miterlimit="10" stroke-linecap="round" stroke-dasharray="2 4"/>
<path d="M117.157 118.349C106.763 118.349 98.3362 109.975 98.3362 99.6452C98.3362 89.3154 106.763 80.9414 117.157 80.9414C127.552 80.9414 135.979 89.3154 135.979 99.6452C135.979 109.975 127.552 118.349 117.157 118.349Z" fill="#FFA96B"/>
<path d="M117.158 113.238C109.602 113.238 103.478 107.152 103.478 99.6437C103.478 92.1354 109.602 86.0488 117.158 86.0488C124.713 86.0488 130.838 92.1354 130.838 99.6437C130.838 107.152 124.713 113.238 117.158 113.238Z" stroke="white" stroke-width="1.5" stroke-miterlimit="10" stroke-linecap="round" stroke-dasharray="2 4"/>
<path d="M166.902 99.7356C156.507 99.7356 148.08 91.3617 148.08 81.0319C148.08 70.7021 156.507 62.3281 166.902 62.3281C177.296 62.3281 185.723 70.7021 185.723 81.0319C185.723 91.3617 177.296 99.7356 166.902 99.7356Z" fill="#FFA96B"/>
<path d="M166.902 94.6252C159.347 94.6252 153.222 88.5386 153.222 81.0304C153.222 73.5222 159.347 67.4355 166.902 67.4355C174.457 67.4355 180.582 73.5222 180.582 81.0304C180.582 88.5386 174.457 94.6252 166.902 94.6252Z" stroke="white" stroke-width="1.5" stroke-miterlimit="10" stroke-linecap="round" stroke-dasharray="2 4"/>
</svg>
