<svg width="20" height="20" viewBox="0 0 20 20" fill="none" xmlns="http://www.w3.org/2000/svg">
<g clip-path="url(#clip0_364_2252)">
<path fill-rule="evenodd" clip-rule="evenodd" d="M10 2.50001C5.8579 2.50001 2.50004 5.85787 2.50004 10C2.50004 14.1421 5.8579 17.5 10 17.5C14.1422 17.5 17.5 14.1421 17.5 10C17.5 5.85787 14.1422 2.50001 10 2.50001ZM0.833374 10C0.833374 4.9374 4.93743 0.833344 10 0.833344C15.0626 0.833344 19.1667 4.9374 19.1667 10C19.1667 15.0626 15.0626 19.1667 10 19.1667C4.93743 19.1667 0.833374 15.0626 0.833374 10Z" fill="#EC8B5A"/>
<path fill-rule="evenodd" clip-rule="evenodd" d="M9.4107 6.07742C9.73614 5.75198 10.2638 5.75198 10.5892 6.07742L13.9225 9.41075C14.248 9.73619 14.248 10.2638 13.9225 10.5893L10.5892 13.9226C10.2638 14.248 9.73614 14.248 9.4107 13.9226C9.08527 13.5972 9.08527 13.0695 9.4107 12.7441L12.1548 10L9.4107 7.25593C9.08527 6.9305 9.08527 6.40286 9.4107 6.07742Z" fill="#EC8B5A"/>
<path fill-rule="evenodd" clip-rule="evenodd" d="M5.83337 9.99999C5.83337 9.53975 6.20647 9.16666 6.66671 9.16666H13.3334C13.7936 9.16666 14.1667 9.53975 14.1667 9.99999C14.1667 10.4602 13.7936 10.8333 13.3334 10.8333H6.66671C6.20647 10.8333 5.83337 10.4602 5.83337 9.99999Z" fill="#EC8B5A"/>
</g>
<defs>
<clipPath id="clip0_364_2252">
<rect width="20" height="20" fill="white"/>
</clipPath>
</defs>
</svg>
