<svg width="140" height="120" viewBox="0 0 140 120" fill="none" xmlns="http://www.w3.org/2000/svg">
<path d="M5.03564 0.455078H90.0913C92.8527 0.455078 95.0913 2.69365 95.0913 5.45507V115C95.0913 117.761 92.8527 120 90.0913 120H5.03565C2.27422 120 0.0356522 117.761 0.0356522 115V5.45508C0.0356522 2.69365 2.27422 0.455078 5.03564 0.455078Z" fill="white"/>
<path d="M85.1348 21.8184H9.99213" stroke="#D0E6F2" stroke-width="1.5" stroke-miterlimit="10" stroke-linecap="round"/>
<path d="M85.1348 36.2188H9.99213" stroke="#D0E6F2" stroke-width="1.5" stroke-miterlimit="10" stroke-linecap="round"/>
<path d="M85.1348 50.6191H9.99213" stroke="#D0E6F2" stroke-width="1.5" stroke-miterlimit="10" stroke-linecap="round"/>
<path d="M85.1348 65.0215H9.99213" stroke="#D0E6F2" stroke-width="1.5" stroke-miterlimit="10" stroke-linecap="round"/>
<path d="M85.1348 79.4219H9.99213" stroke="#D0E6F2" stroke-width="1.5" stroke-miterlimit="10" stroke-linecap="round"/>
<path d="M85.1348 93.8242H9.99213" stroke="#D0E6F2" stroke-width="1.5" stroke-miterlimit="10" stroke-linecap="round"/>
<path d="M98.8945 50.4619C91.0786 50.4619 84.7426 44.1814 84.7426 36.4341C84.7426 28.6867 91.0786 22.4062 98.8945 22.4062C106.71 22.4062 113.046 28.6867 113.046 36.4341C113.046 44.1814 106.71 50.4619 98.8945 50.4619Z" fill="#FFA96B"/>
<path d="M98.8944 46.6305C93.2134 46.6305 88.608 42.0656 88.608 36.4344C88.608 30.8032 93.2134 26.2383 98.8944 26.2383C104.575 26.2383 109.181 30.8032 109.181 36.4344C109.181 42.0656 104.575 46.6305 98.8944 46.6305Z" stroke="white" stroke-width="1.5" stroke-miterlimit="10" stroke-linecap="round" stroke-dasharray="2 4"/>
<path d="M88.0927 88.7607C80.2769 88.7607 73.9408 82.4802 73.9408 74.7329C73.9408 66.9855 80.2769 60.7051 88.0927 60.7051C95.9086 60.7051 102.245 66.9855 102.245 74.7329C102.245 82.4802 95.9086 88.7607 88.0927 88.7607Z" fill="#FFA96B"/>
<path d="M88.0926 84.9294C82.4116 84.9294 77.8063 80.3644 77.8063 74.7332C77.8063 69.1021 82.4116 64.5371 88.0926 64.5371C93.7736 64.5371 98.3789 69.1021 98.3789 74.7332C98.3789 80.3644 93.7736 84.9294 88.0926 84.9294Z" stroke="white" stroke-width="1.5" stroke-miterlimit="10" stroke-linecap="round" stroke-dasharray="2 4"/>
<path d="M125.496 74.8017C117.68 74.8017 111.344 68.5213 111.344 60.7739C111.344 53.0266 117.68 46.7461 125.496 46.7461C133.311 46.7461 139.647 53.0266 139.647 60.7739C139.647 68.5213 133.311 74.8017 125.496 74.8017Z" fill="#FFA96B"/>
<path d="M125.495 70.9704C119.814 70.9704 115.209 66.4054 115.209 60.7743C115.209 55.1431 119.814 50.5781 125.495 50.5781C131.176 50.5781 135.782 55.1431 135.782 60.7743C135.782 66.4054 131.176 70.9704 125.495 70.9704Z" stroke="white" stroke-width="1.5" stroke-miterlimit="10" stroke-linecap="round" stroke-dasharray="2 4"/>
</svg>
