<svg width="130" height="130" viewBox="0 0 130 130" fill="none" xmlns="http://www.w3.org/2000/svg">
<g clip-path="url(#clip0_528_6311)">
<path d="M65 130C100.899 130 130 100.899 130 65C130 29.1015 100.899 0 65 0C29.1015 0 0 29.1015 0 65C0 100.899 29.1015 130 65 130Z" fill="#D0E6F2"/>
<path d="M65 113.116C91.573 113.116 113.115 91.5745 113.115 65.0014C113.115 38.4284 91.573 16.8867 65 16.8867C38.427 16.8867 16.8853 38.4284 16.8853 65.0014C16.8853 91.5745 38.427 113.116 65 113.116Z" stroke="white" stroke-width="1.5" stroke-linecap="round" stroke-dasharray="2 8"/>
<path d="M64.9999 94.952C81.5428 94.952 94.9535 81.5413 94.9535 64.9985C94.9535 48.4556 81.5428 35.0449 64.9999 35.0449C48.457 35.0449 35.0464 48.4556 35.0464 64.9985C35.0464 81.5413 48.457 94.952 64.9999 94.952Z" stroke="white" stroke-width="1.5" stroke-linecap="round" stroke-dasharray="2 8"/>
<path d="M77.3486 51.7236H68.01V32.5868C68.01 31.9237 67.132 31.6883 66.8004 32.2627L52.0898 57.7423C51.8402 58.1745 52.1523 58.7148 52.6513 58.7148H61.9899V77.8516C61.9899 78.5147 62.868 78.75 63.1995 78.1756L77.9102 52.696C78.1597 52.2639 77.8477 51.7236 77.3486 51.7236Z" fill="#FFA96B"/>
<path d="M59.0698 82.7918C50.9278 76.4469 42.9992 79.0968 42.9992 79.0968C42.9992 79.0968 43.8514 87.8461 49.1535 93.423C54.4555 98.9998 63.2696 100.548 63.2696 100.548C63.2696 100.548 65.8537 89.8438 59.0698 82.7918Z" fill="#4EB489"/>
<path d="M71.3864 77.9721C84.9802 70.5112 94.0272 77.538 94.0272 77.538C94.0272 77.538 91.1353 89.7365 82.4366 95.7362C73.738 101.736 62.9059 100.692 62.9059 100.692C62.9059 100.692 57.2818 85.7134 71.3864 77.9721Z" fill="#3F9378"/>
<path d="M63.7512 99.74C63.7512 99.74 71.523 84.1078 93.1359 77.7742" stroke="white" stroke-miterlimit="10" stroke-linecap="round"/>
<path d="M80.7519 82.7435C80.7519 82.7435 79.1673 79.8165 82.3622 76.1979" stroke="white" stroke-miterlimit="10" stroke-linecap="round"/>
<path d="M74.2073 88.0953C74.2073 88.0953 77.6455 91.9157 87.1726 88.2326" stroke="white" stroke-miterlimit="10" stroke-linecap="round"/>
<path d="M70.6353 90.1515C70.6353 90.1515 67.4223 85.8172 70.4491 80.7522" stroke="white" stroke-miterlimit="10" stroke-linecap="round"/>
</g>
<defs>
<clipPath id="clip0_528_6311">
<rect width="130" height="130" fill="white"/>
</clipPath>
</defs>
</svg>
