<svg width="41" height="41" viewBox="0 0 41 41" fill="none" xmlns="http://www.w3.org/2000/svg">
<g id="mdi:twitter">
<path id="Vector" d="M9.81682 27.5853C8.92425 26.9203 8.21697 26.0443 7.7549 25.0411C8.61931 25.1089 9.49118 25.027 10.3317 24.797L10.2973 23.8243C7.49898 23.2675 5.33012 20.9323 5.00782 18.0447C5.83717 18.3748 6.74808 18.5814 7.71641 18.5814H9.41063L7.98788 17.6615C6.19663 16.5034 5.03307 14.4612 5.03307 12.148C5.03307 11.1943 5.23544 10.2804 5.60125 9.45907C9.19558 13.5564 14.3973 16.237 20.2078 16.5307L20.8659 16.564L20.7208 15.9213C20.6118 15.4388 20.5497 14.9257 20.5497 14.398C20.5497 10.7227 23.5274 7.74805 27.1664 7.74805C29.1287 7.74805 30.8444 8.52436 32.0649 9.85296L32.2565 10.0616L32.534 10.0044C33.7177 9.76037 34.8604 9.38597 35.9369 8.88032C35.3692 9.8806 34.5517 10.7149 33.5751 11.3031L33.8965 12.2273C34.7822 12.1141 35.6507 11.9266 36.4908 11.6647C35.7749 12.5052 34.9667 13.2548 34.0758 13.8912L33.8527 14.0505L33.8671 14.3243C33.883 14.6258 33.8831 14.9129 33.8831 15.2314C33.8831 24.466 26.8332 35.0814 14.0331 35.0814C10.8303 35.0814 7.8004 34.3166 5.11797 32.9622C8.32962 32.9003 11.4364 31.7879 13.9601 29.7901L15.0546 28.9236L13.6589 28.8981C12.2724 28.8729 10.9288 28.4137 9.81682 27.5853ZM4.764 32.9647C4.7644 32.9647 4.7648 32.9647 4.7652 32.9647L4.76489 32.7794L4.764 32.9647Z" fill="#2E3855" stroke="#2E3855"/>
</g>
</svg>
