<svg width="150" height="45" viewBox="0 0 150 45" fill="none" xmlns="http://www.w3.org/2000/svg">
<path d="M29.9998 30.8327C34.6022 30.8327 38.3332 27.1017 38.3332 22.4993C38.3332 17.897 34.6022 14.166 29.9998 14.166C25.3975 14.166 21.6665 17.897 21.6665 22.4993C21.6665 27.1017 25.3975 30.8327 29.9998 30.8327Z" stroke="#2E3855" stroke-width="2" stroke-linecap="round" stroke-linejoin="round"/>
<path d="M26.6665 22.5H33.3332" stroke="#2E3855" stroke-width="2" stroke-linecap="round" stroke-linejoin="round"/>
<path d="M60.6845 28.5H58.5255L56.409 23.5105H53.553V28.5H51.4875V16.209H56.477C57.4177 16.209 58.1912 16.3563 58.7975 16.651C59.4095 16.94 59.8628 17.3508 60.1575 17.8835C60.4522 18.4105 60.5995 19.0282 60.5995 19.7365C60.5995 20.3938 60.4918 20.9463 60.2765 21.394C60.0612 21.836 59.7807 22.1987 59.435 22.482C59.095 22.7597 58.7295 22.9863 58.3385 23.162L60.6845 28.5ZM56.0095 21.87C56.7915 21.87 57.4007 21.6887 57.837 21.326C58.279 20.9633 58.5 20.459 58.5 19.813C58.5 19.1783 58.296 18.6882 57.888 18.3425C57.48 17.9968 56.9417 17.824 56.273 17.824H53.553V21.87H56.0095ZM64.5086 24.5815C64.5029 25.0802 64.5822 25.5222 64.7466 25.9075C64.9109 26.2928 65.1546 26.596 65.4776 26.817C65.8006 27.0323 66.2001 27.14 66.6761 27.14C67.1634 27.14 67.5856 27.0323 67.9426 26.817C68.3052 26.596 68.5461 26.2617 68.6651 25.814H70.5606C70.4586 26.426 70.2149 26.9445 69.8296 27.3695C69.4442 27.7945 68.9767 28.1175 68.4271 28.3385C67.8831 28.5595 67.3164 28.67 66.7271 28.67C65.8771 28.67 65.1291 28.4915 64.4831 28.1345C63.8427 27.7718 63.3412 27.2562 62.9786 26.5875C62.6216 25.9188 62.4431 25.1227 62.4431 24.199C62.4431 23.298 62.6074 22.499 62.9361 21.802C63.2647 21.0993 63.7379 20.5468 64.3556 20.1445C64.9789 19.7422 65.7269 19.541 66.5996 19.541C67.4666 19.541 68.1947 19.7252 68.7841 20.0935C69.3791 20.4618 69.8267 20.9775 70.1271 21.6405C70.4331 22.2978 70.5861 23.0685 70.5861 23.9525V24.5815H64.5086ZM64.5086 23.298H68.6311C68.6311 22.873 68.5574 22.4905 68.4101 22.1505C68.2627 21.8048 68.0361 21.5328 67.7301 21.3345C67.4297 21.1305 67.0501 21.0285 66.5911 21.0285C66.1377 21.0285 65.7552 21.139 65.4436 21.36C65.1319 21.581 64.8967 21.8672 64.7381 22.2185C64.5794 22.5642 64.5029 22.924 64.5086 23.298ZM75.2615 28.67C74.7005 28.67 74.1961 28.568 73.7485 28.364C73.3065 28.1543 72.958 27.8568 72.703 27.4715C72.4536 27.0805 72.329 26.6073 72.329 26.052C72.329 25.083 72.6775 24.352 73.3745 23.859C74.0771 23.366 75.1963 23.1082 76.732 23.0855L78.041 23.0515V22.4565C78.041 21.9918 77.9021 21.6292 77.6245 21.3685C77.3525 21.1022 76.9275 20.9718 76.3495 20.9775C75.9245 20.9832 75.5335 21.0852 75.1765 21.2835C74.8251 21.4762 74.5928 21.802 74.4795 22.261H72.72C72.754 21.6603 72.9268 21.1588 73.2385 20.7565C73.5558 20.3485 73.9893 20.0453 74.539 19.847C75.0886 19.643 75.7233 19.541 76.443 19.541C77.2816 19.541 77.9645 19.6515 78.4915 19.8725C79.0185 20.0935 79.4066 20.4137 79.656 20.833C79.9053 21.2467 80.03 21.7482 80.03 22.3375V28.5H78.2875L78.126 26.919C77.8086 27.582 77.4063 28.041 76.919 28.296C76.4373 28.5453 75.8848 28.67 75.2615 28.67ZM75.933 27.2675C76.188 27.2675 76.4401 27.2222 76.6895 27.1315C76.9388 27.0352 77.1655 26.9077 77.3695 26.749C77.5735 26.5847 77.735 26.4033 77.854 26.205C77.9786 26.0067 78.041 25.7998 78.041 25.5845V24.199L76.9615 24.216C76.4288 24.2217 75.9641 24.2783 75.5675 24.386C75.1708 24.4937 74.8591 24.6665 74.6325 24.9045C74.4115 25.1368 74.301 25.4485 74.301 25.8395C74.301 26.2872 74.4568 26.6385 74.7685 26.8935C75.0801 27.1428 75.4683 27.2675 75.933 27.2675ZM86.0112 28.67C84.8495 28.67 83.9372 28.2705 83.2742 27.4715C82.6112 26.6725 82.2797 25.5363 82.2797 24.063C82.2797 23.145 82.4128 22.3488 82.6792 21.6745C82.9512 20.9945 83.3478 20.4703 83.8692 20.102C84.3962 19.728 85.0478 19.541 85.8242 19.541C86.1868 19.541 86.5155 19.5863 86.8102 19.677C87.1105 19.762 87.3768 19.8753 87.6092 20.017C87.8415 20.1587 88.037 20.3145 88.1957 20.4845C88.36 20.6545 88.4875 20.8245 88.5782 20.9945V15.869H90.6522V28.5H89.1222L88.8927 26.698C88.8247 26.9077 88.7227 27.1287 88.5867 27.361C88.4563 27.5877 88.2778 27.8002 88.0512 27.9985C87.8302 28.1968 87.5525 28.3583 87.2182 28.483C86.8838 28.6077 86.4815 28.67 86.0112 28.67ZM86.4362 27.1485C87.1785 27.1485 87.7197 26.9077 88.0597 26.426C88.4053 25.9387 88.5782 25.134 88.5782 24.012C88.5725 23.3717 88.4932 22.8333 88.3402 22.397C88.1928 21.9607 87.9633 21.632 87.6517 21.411C87.3457 21.19 86.949 21.0795 86.4617 21.0795C85.8383 21.0795 85.3255 21.309 84.9232 21.768C84.5208 22.227 84.3197 22.975 84.3197 24.012C84.3197 25.0433 84.5038 25.8253 84.8722 26.358C85.2405 26.885 85.7618 27.1485 86.4362 27.1485ZM99.9646 28.6275C99.3979 28.6275 98.9446 28.5567 98.6046 28.415C98.2646 28.2733 98.0096 28.0835 97.8396 27.8455C97.6696 27.6075 97.5591 27.3412 97.5081 27.0465C97.4571 26.7462 97.4316 26.4402 97.4316 26.1285V15.869H99.4546V25.8905C99.4546 26.2702 99.5311 26.5648 99.6841 26.7745C99.8428 26.9842 100.098 27.106 100.449 27.14L100.891 27.157V28.4575C100.738 28.5028 100.582 28.5425 100.424 28.5765C100.265 28.6105 100.112 28.6275 99.9646 28.6275ZM104.591 24.5815C104.586 25.0802 104.665 25.5222 104.829 25.9075C104.994 26.2928 105.237 26.596 105.56 26.817C105.883 27.0323 106.283 27.14 106.759 27.14C107.246 27.14 107.668 27.0323 108.025 26.817C108.388 26.596 108.629 26.2617 108.748 25.814H110.643C110.541 26.426 110.298 26.9445 109.912 27.3695C109.527 27.7945 109.06 28.1175 108.51 28.3385C107.966 28.5595 107.399 28.67 106.81 28.67C105.96 28.67 105.212 28.4915 104.566 28.1345C103.926 27.7718 103.424 27.2562 103.061 26.5875C102.704 25.9188 102.526 25.1227 102.526 24.199C102.526 23.298 102.69 22.499 103.019 21.802C103.348 21.0993 103.821 20.5468 104.438 20.1445C105.062 19.7422 105.81 19.541 106.682 19.541C107.549 19.541 108.278 19.7252 108.867 20.0935C109.462 20.4618 109.91 20.9775 110.21 21.6405C110.516 22.2978 110.669 23.0685 110.669 23.9525V24.5815H104.591ZM104.591 23.298H108.714C108.714 22.873 108.64 22.4905 108.493 22.1505C108.346 21.8048 108.119 21.5328 107.813 21.3345C107.513 21.1305 107.133 21.0285 106.674 21.0285C106.221 21.0285 105.838 21.139 105.526 21.36C105.215 21.581 104.98 21.8672 104.821 22.2185C104.662 22.5642 104.586 22.924 104.591 23.298ZM116.21 28.67C115.598 28.67 115.017 28.5737 114.468 28.381C113.924 28.1827 113.465 27.8738 113.091 27.4545C112.722 27.0352 112.49 26.494 112.394 25.831H114.213C114.292 26.154 114.431 26.4175 114.629 26.6215C114.833 26.8255 115.074 26.9757 115.352 27.072C115.629 27.1627 115.913 27.208 116.202 27.208C116.729 27.208 117.154 27.1173 117.477 26.936C117.805 26.7547 117.97 26.4742 117.97 26.0945C117.97 25.8168 117.879 25.5958 117.698 25.4315C117.516 25.2672 117.227 25.1425 116.831 25.0575L115.156 24.675C114.414 24.5107 113.816 24.2387 113.363 23.859C112.915 23.4793 112.688 22.9438 112.683 22.2525C112.677 21.7312 112.807 21.2665 113.074 20.8585C113.34 20.4505 113.737 20.1303 114.264 19.898C114.791 19.66 115.442 19.541 116.219 19.541C117.244 19.541 118.066 19.7705 118.684 20.2295C119.301 20.6828 119.619 21.3317 119.636 22.176H117.876C117.814 21.7963 117.635 21.5017 117.341 21.292C117.046 21.0767 116.663 20.969 116.193 20.969C115.706 20.969 115.306 21.0625 114.995 21.2495C114.683 21.4365 114.527 21.7227 114.527 22.108C114.527 22.3743 114.646 22.584 114.884 22.737C115.122 22.89 115.479 23.0203 115.955 23.128L117.536 23.5105C117.989 23.6238 118.361 23.7768 118.65 23.9695C118.939 24.1622 119.165 24.3747 119.33 24.607C119.494 24.8337 119.607 25.0688 119.67 25.3125C119.738 25.5505 119.772 25.7715 119.772 25.9755C119.772 26.5422 119.624 27.0267 119.33 27.429C119.041 27.8257 118.63 28.1317 118.097 28.347C117.564 28.5623 116.935 28.67 116.21 28.67ZM125.249 28.67C124.637 28.67 124.056 28.5737 123.507 28.381C122.963 28.1827 122.504 27.8738 122.13 27.4545C121.761 27.0352 121.529 26.494 121.433 25.831H123.252C123.331 26.154 123.47 26.4175 123.668 26.6215C123.872 26.8255 124.113 26.9757 124.391 27.072C124.668 27.1627 124.952 27.208 125.241 27.208C125.768 27.208 126.193 27.1173 126.516 26.936C126.844 26.7547 127.009 26.4742 127.009 26.0945C127.009 25.8168 126.918 25.5958 126.737 25.4315C126.555 25.2672 126.266 25.1425 125.87 25.0575L124.195 24.675C123.453 24.5107 122.855 24.2387 122.402 23.859C121.954 23.4793 121.727 22.9438 121.722 22.2525C121.716 21.7312 121.846 21.2665 122.113 20.8585C122.379 20.4505 122.776 20.1303 123.303 19.898C123.83 19.66 124.481 19.541 125.258 19.541C126.283 19.541 127.105 19.7705 127.723 20.2295C128.34 20.6828 128.658 21.3317 128.675 22.176H126.915C126.853 21.7963 126.674 21.5017 126.38 21.292C126.085 21.0767 125.703 20.969 125.232 20.969C124.745 20.969 124.345 21.0625 124.034 21.2495C123.722 21.4365 123.566 21.7227 123.566 22.108C123.566 22.3743 123.685 22.584 123.923 22.737C124.161 22.89 124.518 23.0203 124.994 23.128L126.575 23.5105C127.029 23.6238 127.4 23.7768 127.689 23.9695C127.978 24.1622 128.204 24.3747 128.369 24.607C128.533 24.8337 128.646 25.0688 128.709 25.3125C128.777 25.5505 128.811 25.7715 128.811 25.9755C128.811 26.5422 128.663 27.0267 128.369 27.429C128.08 27.8257 127.669 28.1317 127.136 28.347C126.604 28.5623 125.975 28.67 125.249 28.67Z" fill="#2E3855"/>
<rect x="0.5" y="1" width="149" height="43" rx="5.5" stroke="#2E3855"/>
</svg>
