<svg width="150" height="45" viewBox="0 0 150 45" fill="none" xmlns="http://www.w3.org/2000/svg">
<path d="M25.4998 30.8327C30.1022 30.8327 33.8332 27.1017 33.8332 22.4993C33.8332 17.897 30.1022 14.166 25.4998 14.166C20.8975 14.166 17.1665 17.897 17.1665 22.4993C17.1665 27.1017 20.8975 30.8327 25.4998 30.8327Z" stroke="#2E3855" stroke-width="2" stroke-linecap="round" stroke-linejoin="round"/>
<path d="M22.1665 22.5H28.8332" stroke="#2E3855" stroke-width="2" stroke-linecap="round" stroke-linejoin="round"/>
<path d="M25.5 19.166V25.8327" stroke="#2E3855" stroke-width="2" stroke-linecap="round" stroke-linejoin="round"/>
<path d="M56.1845 28.5H54.0255L51.909 23.5105H49.053V28.5H46.9875V16.209H51.977C52.9177 16.209 53.6912 16.3563 54.2975 16.651C54.9095 16.94 55.3628 17.3508 55.6575 17.8835C55.9522 18.4105 56.0995 19.0282 56.0995 19.7365C56.0995 20.3938 55.9918 20.9463 55.7765 21.394C55.5612 21.836 55.2807 22.1987 54.935 22.482C54.595 22.7597 54.2295 22.9863 53.8385 23.162L56.1845 28.5ZM51.5095 21.87C52.2915 21.87 52.9007 21.6887 53.337 21.326C53.779 20.9633 54 20.459 54 19.813C54 19.1783 53.796 18.6882 53.388 18.3425C52.98 17.9968 52.4417 17.824 51.773 17.824H49.053V21.87H51.5095ZM60.0086 24.5815C60.0029 25.0802 60.0822 25.5222 60.2466 25.9075C60.4109 26.2928 60.6546 26.596 60.9776 26.817C61.3006 27.0323 61.7001 27.14 62.1761 27.14C62.6634 27.14 63.0856 27.0323 63.4426 26.817C63.8052 26.596 64.0461 26.2617 64.1651 25.814H66.0606C65.9586 26.426 65.7149 26.9445 65.3296 27.3695C64.9442 27.7945 64.4767 28.1175 63.9271 28.3385C63.3831 28.5595 62.8164 28.67 62.2271 28.67C61.3771 28.67 60.6291 28.4915 59.9831 28.1345C59.3427 27.7718 58.8412 27.2562 58.4786 26.5875C58.1216 25.9188 57.9431 25.1227 57.9431 24.199C57.9431 23.298 58.1074 22.499 58.4361 21.802C58.7647 21.0993 59.2379 20.5468 59.8556 20.1445C60.4789 19.7422 61.2269 19.541 62.0996 19.541C62.9666 19.541 63.6947 19.7252 64.2841 20.0935C64.8791 20.4618 65.3267 20.9775 65.6271 21.6405C65.9331 22.2978 66.0861 23.0685 66.0861 23.9525V24.5815H60.0086ZM60.0086 23.298H64.1311C64.1311 22.873 64.0574 22.4905 63.9101 22.1505C63.7627 21.8048 63.5361 21.5328 63.2301 21.3345C62.9297 21.1305 62.5501 21.0285 62.0911 21.0285C61.6377 21.0285 61.2552 21.139 60.9436 21.36C60.6319 21.581 60.3967 21.8672 60.2381 22.2185C60.0794 22.5642 60.0029 22.924 60.0086 23.298ZM70.7615 28.67C70.2005 28.67 69.6961 28.568 69.2485 28.364C68.8065 28.1543 68.458 27.8568 68.203 27.4715C67.9536 27.0805 67.829 26.6073 67.829 26.052C67.829 25.083 68.1775 24.352 68.8745 23.859C69.5771 23.366 70.6963 23.1082 72.232 23.0855L73.541 23.0515V22.4565C73.541 21.9918 73.4021 21.6292 73.1245 21.3685C72.8525 21.1022 72.4275 20.9718 71.8495 20.9775C71.4245 20.9832 71.0335 21.0852 70.6765 21.2835C70.3251 21.4762 70.0928 21.802 69.9795 22.261H68.22C68.254 21.6603 68.4268 21.1588 68.7385 20.7565C69.0558 20.3485 69.4893 20.0453 70.039 19.847C70.5886 19.643 71.2233 19.541 71.943 19.541C72.7816 19.541 73.4645 19.6515 73.9915 19.8725C74.5185 20.0935 74.9066 20.4137 75.156 20.833C75.4053 21.2467 75.53 21.7482 75.53 22.3375V28.5H73.7875L73.626 26.919C73.3086 27.582 72.9063 28.041 72.419 28.296C71.9373 28.5453 71.3848 28.67 70.7615 28.67ZM71.433 27.2675C71.688 27.2675 71.9401 27.2222 72.1895 27.1315C72.4388 27.0352 72.6655 26.9077 72.8695 26.749C73.0735 26.5847 73.235 26.4033 73.354 26.205C73.4786 26.0067 73.541 25.7998 73.541 25.5845V24.199L72.4615 24.216C71.9288 24.2217 71.4641 24.2783 71.0675 24.386C70.6708 24.4937 70.3591 24.6665 70.1325 24.9045C69.9115 25.1368 69.801 25.4485 69.801 25.8395C69.801 26.2872 69.9568 26.6385 70.2685 26.8935C70.5801 27.1428 70.9683 27.2675 71.433 27.2675ZM81.5112 28.67C80.3495 28.67 79.4372 28.2705 78.7742 27.4715C78.1112 26.6725 77.7797 25.5363 77.7797 24.063C77.7797 23.145 77.9128 22.3488 78.1792 21.6745C78.4512 20.9945 78.8478 20.4703 79.3692 20.102C79.8962 19.728 80.5478 19.541 81.3242 19.541C81.6868 19.541 82.0155 19.5863 82.3102 19.677C82.6105 19.762 82.8768 19.8753 83.1092 20.017C83.3415 20.1587 83.537 20.3145 83.6957 20.4845C83.86 20.6545 83.9875 20.8245 84.0782 20.9945V15.869H86.1522V28.5H84.6222L84.3927 26.698C84.3247 26.9077 84.2227 27.1287 84.0867 27.361C83.9563 27.5877 83.7778 27.8002 83.5512 27.9985C83.3302 28.1968 83.0525 28.3583 82.7182 28.483C82.3838 28.6077 81.9815 28.67 81.5112 28.67ZM81.9362 27.1485C82.6785 27.1485 83.2197 26.9077 83.5597 26.426C83.9053 25.9387 84.0782 25.134 84.0782 24.012C84.0725 23.3717 83.9932 22.8333 83.8402 22.397C83.6928 21.9607 83.4633 21.632 83.1517 21.411C82.8457 21.19 82.449 21.0795 81.9617 21.0795C81.3383 21.0795 80.8255 21.309 80.4232 21.768C80.0208 22.227 79.8197 22.975 79.8197 24.012C79.8197 25.0433 80.0038 25.8253 80.3722 26.358C80.7405 26.885 81.2618 27.1485 81.9362 27.1485ZM92.9316 28.5V19.711H94.9461V20.969C95.2011 20.5837 95.5468 20.2493 95.9831 19.966C96.4251 19.6827 96.9861 19.541 97.6661 19.541C97.9778 19.541 98.2923 19.5948 98.6096 19.7025C98.9326 19.8102 99.2301 19.9688 99.5021 20.1785C99.7798 20.3882 100.001 20.6488 100.165 20.9605C100.443 20.5468 100.811 20.2068 101.27 19.9405C101.735 19.6742 102.256 19.541 102.834 19.541C103.151 19.541 103.477 19.592 103.812 19.694C104.152 19.796 104.463 19.966 104.747 20.204C105.03 20.442 105.259 20.7678 105.435 21.1815C105.611 21.5895 105.699 22.1023 105.699 22.72V28.5H103.633V22.9665C103.633 22.5302 103.557 22.1873 103.404 21.938C103.251 21.6887 103.052 21.513 102.809 21.411C102.571 21.3033 102.316 21.2495 102.044 21.2495C101.8 21.2495 101.545 21.2977 101.279 21.394C101.018 21.4903 100.794 21.649 100.607 21.87C100.426 22.091 100.335 22.3885 100.335 22.7625V28.5H98.2696V22.635C98.2696 22.329 98.1903 22.074 98.0316 21.87C97.8729 21.666 97.6718 21.513 97.4281 21.411C97.1901 21.3033 96.9464 21.2495 96.6971 21.2495C96.4421 21.2495 96.1814 21.3033 95.9151 21.411C95.6544 21.5187 95.4363 21.683 95.2606 21.904C95.0849 22.125 94.9971 22.4112 94.9971 22.7625V28.5H92.9316ZM111.909 28.67C111.071 28.67 110.34 28.4915 109.716 28.1345C109.093 27.7718 108.608 27.2533 108.263 26.579C107.923 25.9047 107.753 25.0943 107.753 24.148C107.753 23.23 107.917 22.4253 108.246 21.734C108.58 21.0427 109.059 20.5043 109.682 20.119C110.306 19.7337 111.051 19.541 111.918 19.541C112.756 19.541 113.485 19.7252 114.102 20.0935C114.72 20.4618 115.196 20.9888 115.53 21.6745C115.87 22.3602 116.04 23.1847 116.04 24.148C116.04 25.0377 115.879 25.8225 115.556 26.5025C115.238 27.1768 114.771 27.7067 114.153 28.092C113.541 28.4773 112.793 28.67 111.909 28.67ZM111.918 27.0975C112.394 27.0975 112.785 26.9672 113.091 26.7065C113.402 26.4458 113.632 26.0888 113.779 25.6355C113.932 25.1822 114.009 24.6665 114.009 24.0885C114.009 23.5502 113.941 23.0543 113.805 22.601C113.674 22.1477 113.453 21.785 113.142 21.513C112.836 21.2353 112.428 21.0965 111.918 21.0965C111.436 21.0965 111.037 21.224 110.719 21.479C110.408 21.7283 110.172 22.0797 110.014 22.533C109.861 22.9807 109.784 23.4992 109.784 24.0885C109.784 24.6212 109.852 25.117 109.988 25.576C110.13 26.0293 110.357 26.3977 110.668 26.681C110.98 26.9587 111.396 27.0975 111.918 27.0975ZM118.215 28.5V19.711H120.196V21.615C120.337 21.1787 120.538 20.8075 120.799 20.5015C121.065 20.1898 121.377 19.9518 121.734 19.7875C122.091 19.6232 122.479 19.541 122.899 19.541C123.001 19.541 123.1 19.5467 123.196 19.558C123.292 19.5693 123.363 19.5892 123.409 19.6175V21.598C123.346 21.5697 123.264 21.5498 123.162 21.5385C123.066 21.5272 122.981 21.5215 122.907 21.5215C122.482 21.4875 122.105 21.5045 121.777 21.5725C121.454 21.6405 121.179 21.7567 120.952 21.921C120.731 22.0797 120.564 22.2837 120.451 22.533C120.337 22.7767 120.281 23.0628 120.281 23.3915V28.5H118.215ZM126.852 24.5815C126.847 25.0802 126.926 25.5222 127.09 25.9075C127.255 26.2928 127.498 26.596 127.821 26.817C128.144 27.0323 128.544 27.14 129.02 27.14C129.507 27.14 129.929 27.0323 130.286 26.817C130.649 26.596 130.89 26.2617 131.009 25.814H132.904C132.802 26.426 132.559 26.9445 132.173 27.3695C131.788 27.7945 131.321 28.1175 130.771 28.3385C130.227 28.5595 129.66 28.67 129.071 28.67C128.221 28.67 127.473 28.4915 126.827 28.1345C126.187 27.7718 125.685 27.2562 125.322 26.5875C124.965 25.9188 124.787 25.1227 124.787 24.199C124.787 23.298 124.951 22.499 125.28 21.802C125.609 21.0993 126.082 20.5468 126.699 20.1445C127.323 19.7422 128.071 19.541 128.943 19.541C129.81 19.541 130.539 19.7252 131.128 20.0935C131.723 20.4618 132.171 20.9775 132.471 21.6405C132.777 22.2978 132.93 23.0685 132.93 23.9525V24.5815H126.852ZM126.852 23.298H130.975C130.975 22.873 130.901 22.4905 130.754 22.1505C130.607 21.8048 130.38 21.5328 130.074 21.3345C129.774 21.1305 129.394 21.0285 128.935 21.0285C128.482 21.0285 128.099 21.139 127.787 21.36C127.476 21.581 127.241 21.8672 127.082 22.2185C126.923 22.5642 126.847 22.924 126.852 23.298Z" fill="#2E3855"/>
<rect x="0.5" y="1" width="149" height="43" rx="5.5" stroke="#2E3855"/>
</svg>
